<?xml version="1.0" encoding="utf-8"?>
<!-- Generator: Adobe Illustrator 16.0.0, SVG Export Plug-In . SVG Version: 6.00 Build 0)  -->
<!DOCTYPE svg PUBLIC "-//W3C//DTD SVG 1.1//EN" "http://www.w3.org/Graphics/SVG/1.1/DTD/svg11.dtd">
<svg version="1.1" id="Layer_1" xmlns="http://www.w3.org/2000/svg" xmlns:xlink="http://www.w3.org/1999/xlink" x="0px" y="0px"
	 width="91.205px" height="91.204px" viewBox="0 0 91.205 91.204" enable-background="new 0 0 91.205 91.204" xml:space="preserve">
<g>
	<path fill="#358179" d="M45.603,77.864c-17.79,0-32.262-14.473-32.262-32.262S27.813,13.34,45.603,13.34
		c17.789,0,32.261,14.473,32.261,32.262S63.392,77.864,45.603,77.864z M45.603,21.34c-13.378,0-24.262,10.884-24.262,24.262
		c0,13.377,10.884,24.262,24.262,24.262c13.377,0,24.261-10.885,24.261-24.262C69.863,32.224,58.979,21.34,45.603,21.34z"/>
</g>
<circle fill="#ED1C24" cx="45.602" cy="45.602" r="19.843"/>
<g>
	<path fill="#59C3B6" d="M45.603,91.204C20.457,91.204,0,70.747,0,45.602C0,20.457,20.457,0,45.603,0s45.603,20.457,45.603,45.602
		C91.205,70.747,70.748,91.204,45.603,91.204z M45.603,9C25.42,9,9,25.419,9,45.602s16.42,36.602,36.603,36.602
		s36.603-16.419,36.603-36.602S65.785,9,45.603,9z"/>
</g>
</svg>
