<?xml version="1.0" encoding="utf-8"?>
<!-- Generator: Adobe Illustrator 16.0.0, SVG Export Plug-In . SVG Version: 6.00 Build 0)  -->
<!DOCTYPE svg PUBLIC "-//W3C//DTD SVG 1.1//EN" "http://www.w3.org/Graphics/SVG/1.1/DTD/svg11.dtd">
<svg version="1.1" id="Layer_1" xmlns="http://www.w3.org/2000/svg" xmlns:xlink="http://www.w3.org/1999/xlink" x="0px" y="0px"
	 width="56.693px" height="56.693px" viewBox="0 0 56.693 56.693" enable-background="new 0 0 56.693 56.693" xml:space="preserve">
<path fill="#FFFFFF" d="M51.921,39.149c0.954-1.48,1.473-3.212,1.473-5.03c0-4.438-3.098-8.166-7.243-9.135
	c0.423-1.018,0.647-2.114,0.647-3.232c0-4.083-2.875-7.508-6.706-8.355c0.074-0.515,0.11-1.026,0.11-1.539
	c0-6.537-5.317-11.855-11.854-11.855c-0.68,0-1.303,0.087-1.874,0.18l-3.117,0.51l1.84,2.567c0.779,1.086,1.19,2.348,1.19,3.651
	c0,3.465-2.82,6.285-6.287,6.285h-1.649c-4.717,0-8.555,3.838-8.555,8.556c0,1.118,0.225,2.214,0.648,3.232
	c-4.148,0.969-7.247,4.697-7.247,9.135c0,1.818,0.519,3.551,1.474,5.031c-2.887,1.614-4.773,4.68-4.773,8.161
	c0,5.174,4.209,9.382,9.383,9.382H47.31c5.174,0,9.382-4.208,9.382-9.382C56.692,43.828,54.806,40.762,51.921,39.149z"/>
<g>
	
		<linearGradient id="SVGID_1_" gradientUnits="userSpaceOnUse" x1="1.8796" y1="814.5251" x2="54.6521" y2="814.5251" gradientTransform="matrix(1 0 0 1 0.0801 -786.1777)">
		<stop  offset="0" style="stop-color:#5CBDB3"/>
		<stop  offset="1" style="stop-color:#047472"/>
	</linearGradient>
	<path fill="url(#SVGID_1_)" d="M54.732,47.31c0,4.102-3.32,7.422-7.422,7.422H9.382c-4.102,0-7.422-3.321-7.422-7.422
		c0-3.7,2.711-6.739,6.247-7.307c-1.784-1.35-2.948-3.473-2.948-5.886c0-4.101,3.319-7.42,7.422-7.42h1.454
		c-1.38-1.206-2.278-2.966-2.278-4.947c0-3.637,2.959-6.596,6.595-6.596h1.649c4.556,0,8.247-3.69,8.247-8.245
		c0-1.792-0.59-3.444-1.557-4.793c0.503-0.082,1.019-0.154,1.557-0.154c5.46,0,9.895,4.432,9.895,9.895
		c0,1.163-0.237,2.257-0.609,3.298h0.609c3.637,0,6.596,2.959,6.596,6.596c0,1.98-0.899,3.741-2.276,4.947h1.452
		c4.101,0,7.42,3.321,7.42,7.42c0,2.413-1.164,4.536-2.946,5.885C52.022,40.571,54.732,43.611,54.732,47.31z"/>
</g>
<path fill="#FFFFFF" d="M37.387,41.541H19.305c-0.595,0-1.009,0.587-0.802,1.132c1.082,2.874,6.029,5.463,9.844,5.463
	c3.813,0,8.76-2.589,9.842-5.463C38.396,42.127,37.984,41.541,37.387,41.541z"/>
<path fill="#FFFFFF" d="M18.452,31.645c0,1.823,1.473,3.298,3.298,3.298c1.826,0,3.299-1.475,3.299-3.298
	c0-1.825-1.474-3.297-3.299-3.297C19.924,28.346,18.452,29.819,18.452,31.645z"/>
<path fill="#FFFFFF" d="M38.242,31.645c0-1.825-1.473-3.297-3.298-3.297s-3.299,1.473-3.299,3.297c0,1.823,1.474,3.298,3.299,3.298
	S38.242,33.469,38.242,31.645z"/>
</svg>
