<?xml version="1.0" encoding="utf-8"?>
<!-- Generator: Adobe Illustrator 16.0.0, SVG Export Plug-In . SVG Version: 6.00 Build 0)  -->
<!DOCTYPE svg PUBLIC "-//W3C//DTD SVG 1.1//EN" "http://www.w3.org/Graphics/SVG/1.1/DTD/svg11.dtd">
<svg version="1.1" id="Layer_1" xmlns="http://www.w3.org/2000/svg" xmlns:xlink="http://www.w3.org/1999/xlink" x="0px" y="0px"
	 width="56.693px" height="56.693px" viewBox="0 0 56.693 56.693" enable-background="new 0 0 56.693 56.693" xml:space="preserve">
<g>
	<path fill="#FFFFFF" d="M28.346-0.185c-15.631,0-28.35,12.717-28.351,28.349c0,15.629,12.718,28.345,28.351,28.345
		c15.632,0,28.35-12.716,28.35-28.345C56.696,12.532,43.978-0.185,28.346-0.185z"/>
	
		<linearGradient id="SVGID_1_" gradientUnits="userSpaceOnUse" x1="37.3416" y1="-59.3303" x2="97.7283" y2="-59.3303" gradientTransform="matrix(0.8767 0 0 -0.8767 -30.8617 -23.8536)">
		<stop  offset="0" style="stop-color:#5CBDB3"/>
		<stop  offset="1" style="stop-color:#047472"/>
	</linearGradient>
	<path fill="url(#SVGID_1_)" d="M54.817,28.164c0,14.615-11.853,26.465-26.471,26.465c-14.623,0-26.471-11.85-26.471-26.465
		C1.877,13.544,13.725,1.695,28.346,1.695C42.965,1.695,54.817,13.544,54.817,28.164z"/>
	
		<radialGradient id="SVGID_2_" cx="190.4617" cy="-204.3337" r="32.1196" gradientTransform="matrix(0.6618 0 0 -0.6618 -89.2632 -114.3608)" gradientUnits="userSpaceOnUse">
		<stop  offset="0" style="stop-color:#5CBDB3"/>
		<stop  offset="1" style="stop-color:#047472"/>
	</radialGradient>
	<path fill="url(#SVGID_2_)" d="M50.409,28.164c0,12.181-9.879,22.057-22.063,22.057S6.283,40.344,6.283,28.164
		c0-12.185,9.879-22.061,22.063-22.061C40.53,6.103,50.409,15.979,50.409,28.164z"/>
	<g>
		<path fill="#FFFFFF" d="M14.69,27.484c0-1.785,0.225-3.344,0.677-4.678c0.452-1.333,1.068-2.443,1.853-3.331
			c0.782-0.887,1.676-1.55,2.677-1.992c1-0.441,2.051-0.661,3.152-0.661c1.1,0,2.15,0.221,3.153,0.661
			c1.001,0.441,1.89,1.105,2.668,1.992c0.778,0.888,1.391,1.997,1.837,3.331c0.446,1.334,0.669,2.893,0.669,4.678
			c0,1.898-0.224,3.522-0.669,4.871c-0.446,1.35-1.059,2.447-1.837,3.291c-0.778,0.846-1.667,1.47-2.668,1.868
			c-1.003,0.398-2.053,0.599-3.153,0.599s-2.15-0.199-3.152-0.599c-1.002-0.399-1.895-1.022-2.677-1.868
			c-0.784-0.844-1.401-1.942-1.853-3.291C14.916,31.007,14.69,29.383,14.69,27.484z M19.359,27.484c0,1.484,0.151,2.708,0.452,3.674
			c0.3,0.963,0.725,1.683,1.276,2.154c0.55,0.472,1.203,0.708,1.96,0.708c0.758,0,1.409-0.236,1.953-0.708s0.965-1.194,1.261-2.164
			c0.295-0.969,0.444-2.192,0.444-3.665c0-1.39-0.148-2.573-0.444-3.549c-0.296-0.975-0.716-1.723-1.261-2.241
			c-0.545-0.518-1.195-0.778-1.953-0.778c-0.757,0-1.411,0.26-1.96,0.778c-0.55,0.519-0.976,1.266-1.276,2.241
			C19.51,24.911,19.359,26.094,19.359,27.484z"/>
		<path fill="#FFFFFF" d="M36.121,23.096l-3.269,1.712v-4.42l5.728-3.191h2.193v20.544H36.12L36.121,23.096L36.121,23.096z"/>
	</g>
</g>
</svg>
