<?xml version="1.0" encoding="utf-8"?>
<!-- Generator: Adobe Illustrator 16.0.0, SVG Export Plug-In . SVG Version: 6.00 Build 0)  -->
<!DOCTYPE svg PUBLIC "-//W3C//DTD SVG 1.1//EN" "http://www.w3.org/Graphics/SVG/1.1/DTD/svg11.dtd">
<svg version="1.1" id="Layer_1" xmlns="http://www.w3.org/2000/svg" xmlns:xlink="http://www.w3.org/1999/xlink" x="0px" y="0px"
	 width="56.693px" height="56.693px" viewBox="0 0 56.693 56.693" enable-background="new 0 0 56.693 56.693" xml:space="preserve">
<path fill="#FFFFFF" d="M49.151,0H7.543C3.384,0,0,3.384,0,7.543v41.608c0,4.158,3.384,7.542,7.543,7.542h41.608
	c4.158,0,7.542-3.384,7.542-7.542V7.543C56.693,3.384,53.309,0,49.151,0z"/>
<g>
	
		<linearGradient id="SVGID_1_" gradientUnits="userSpaceOnUse" x1="1.8279" y1="27.4114" x2="54.7839" y2="27.4114" gradientTransform="matrix(1 0 0 -1 0.04 55.7573)">
		<stop  offset="0" style="stop-color:#5CBDB3"/>
		<stop  offset="1" style="stop-color:#047472"/>
	</linearGradient>
	<path fill="url(#SVGID_1_)" d="M54.824,7.543v41.608c0,3.133-2.54,5.673-5.673,5.673H7.543c-3.132,0-5.675-2.54-5.675-5.673V7.543
		c0-3.131,2.542-5.675,5.675-5.675h41.608C52.284,1.868,54.824,4.411,54.824,7.543z"/>
</g>
<circle fill="#FFFFFF" cx="28.347" cy="39.696" r="5.438"/>
<path fill="#FFFFFF" d="M23.185,14.712l0.876,16.076c0.04,0.754,0.663,1.343,1.417,1.343h5.738c0.754,0,1.378-0.589,1.417-1.343
	l0.875-16.076c0.044-0.813-0.601-1.494-1.416-1.494H24.6C23.785,13.217,23.14,13.898,23.185,14.712z"/>
</svg>
