<?xml version="1.0" encoding="utf-8"?>
<!-- Generator: Adobe Illustrator 16.0.0, SVG Export Plug-In . SVG Version: 6.00 Build 0)  -->
<!DOCTYPE svg PUBLIC "-//W3C//DTD SVG 1.1//EN" "http://www.w3.org/Graphics/SVG/1.1/DTD/svg11.dtd">
<svg version="1.1" id="Layer_1" xmlns="http://www.w3.org/2000/svg" xmlns:xlink="http://www.w3.org/1999/xlink" x="0px" y="0px"
	 width="56.693px" height="56.693px" viewBox="0 0 56.693 56.693" enable-background="new 0 0 56.693 56.693" xml:space="preserve">
<rect fill="#FFFFFF" width="56.693" height="56.693"/>
<g>
	<g>
		<linearGradient id="SVGID_1_" gradientUnits="userSpaceOnUse" x1="6.8345" y1="6.8315" x2="50.4661" y2="50.636">
			<stop  offset="0" style="stop-color:#5CBDB3"/>
			<stop  offset="1" style="stop-color:#047472"/>
		</linearGradient>
		<path fill="url(#SVGID_1_)" d="M14.088,1.87H1.868v12.22h12.22V1.87z M12.117,12.119H3.839V3.841h8.278V12.119z"/>
		<linearGradient id="SVGID_2_" gradientUnits="userSpaceOnUse" x1="6.7788" y1="6.8867" x2="50.4128" y2="50.6936">
			<stop  offset="0" style="stop-color:#5CBDB3"/>
			<stop  offset="1" style="stop-color:#047472"/>
		</linearGradient>
		<rect x="5.344" y="5.457" fill="url(#SVGID_2_)" width="5.047" height="5.046"/>
		<linearGradient id="SVGID_3_" gradientUnits="userSpaceOnUse" x1="15.0049" y1="-1.3081" x2="58.6365" y2="42.4963">
			<stop  offset="0" style="stop-color:#5CBDB3"/>
			<stop  offset="1" style="stop-color:#047472"/>
		</linearGradient>
		<rect x="18.162" y="1.87" fill="url(#SVGID_3_)" width="4.073" height="4.074"/>
		<linearGradient id="SVGID_4_" gradientUnits="userSpaceOnUse" x1="-4.375" y1="17.998" x2="39.2538" y2="61.7997">
			<stop  offset="0" style="stop-color:#5CBDB3"/>
			<stop  offset="1" style="stop-color:#047472"/>
		</linearGradient>
		<polygon fill="url(#SVGID_4_)" points="5.941,22.237 1.868,22.237 1.868,26.31 1.868,30.384 5.941,30.384 5.941,26.31 		"/>
		<linearGradient id="SVGID_5_" gradientUnits="userSpaceOnUse" x1="0.7319" y1="12.9087" x2="44.363" y2="56.7126">
			<stop  offset="0" style="stop-color:#5CBDB3"/>
			<stop  offset="1" style="stop-color:#047472"/>
		</linearGradient>
		<rect x="10.015" y="22.237" fill="url(#SVGID_5_)" width="4.073" height="4.073"/>
		<linearGradient id="SVGID_6_" gradientUnits="userSpaceOnUse" x1="0.7236" y1="12.917" x2="44.3552" y2="56.7214">
			<stop  offset="0" style="stop-color:#5CBDB3"/>
			<stop  offset="1" style="stop-color:#047472"/>
		</linearGradient>
		<rect x="5.941" y="18.164" fill="url(#SVGID_6_)" width="4.074" height="4.073"/>
		<linearGradient id="SVGID_7_" gradientUnits="userSpaceOnUse" x1="27.2822" y1="-13.5366" x2="70.914" y2="30.268">
			<stop  offset="0" style="stop-color:#5CBDB3"/>
			<stop  offset="1" style="stop-color:#047472"/>
		</linearGradient>
		<path fill="url(#SVGID_7_)" d="M42.603,1.87v12.22h12.222V1.87H42.603z M52.854,12.119h-8.279V3.841h8.279V12.119z"/>
		<linearGradient id="SVGID_8_" gradientUnits="userSpaceOnUse" x1="27.2285" y1="-13.4795" x2="70.8566" y2="30.3214">
			<stop  offset="0" style="stop-color:#5CBDB3"/>
			<stop  offset="1" style="stop-color:#047472"/>
		</linearGradient>
		<rect x="46.08" y="5.457" fill="url(#SVGID_8_)" width="5.047" height="5.046"/>
		<linearGradient id="SVGID_9_" gradientUnits="userSpaceOnUse" x1="-13.5327" y1="27.1172" x2="30.0987" y2="70.9215">
			<stop  offset="0" style="stop-color:#5CBDB3"/>
			<stop  offset="1" style="stop-color:#047472"/>
		</linearGradient>
		<path fill="url(#SVGID_9_)" d="M1.868,54.823h12.22V42.604H1.868V54.823z M3.839,44.574h8.278v8.279H3.839V44.574z"/>
		<linearGradient id="SVGID_10_" gradientUnits="userSpaceOnUse" x1="-13.5894" y1="27.1709" x2="30.0446" y2="70.9778">
			<stop  offset="0" style="stop-color:#5CBDB3"/>
			<stop  offset="1" style="stop-color:#047472"/>
		</linearGradient>
		<rect x="5.344" y="46.19" fill="url(#SVGID_10_)" width="5.047" height="5.046"/>
		<linearGradient id="SVGID_11_" gradientUnits="userSpaceOnUse" x1="-9.4297" y1="23.0415" x2="34.194" y2="66.838">
			<stop  offset="0" style="stop-color:#5CBDB3"/>
			<stop  offset="1" style="stop-color:#047472"/>
		</linearGradient>
		<rect x="18.162" y="50.751" fill="url(#SVGID_11_)" width="4.073" height="4.071"/>
		<linearGradient id="SVGID_12_" gradientUnits="userSpaceOnUse" x1="-9.4692" y1="23.0669" x2="34.1697" y2="66.8788">
			<stop  offset="0" style="stop-color:#5CBDB3"/>
			<stop  offset="1" style="stop-color:#047472"/>
		</linearGradient>
		<rect x="1.868" y="34.457" fill="url(#SVGID_12_)" width="4.073" height="4.074"/>
		<linearGradient id="SVGID_13_" gradientUnits="userSpaceOnUse" x1="6.918" y1="6.7515" x2="50.5472" y2="50.5536">
			<stop  offset="0" style="stop-color:#5CBDB3"/>
			<stop  offset="1" style="stop-color:#047472"/>
		</linearGradient>
		<path fill="url(#SVGID_13_)" d="M42.603,54.823h12.222V42.604H42.603V54.823z M44.575,44.574h8.279v8.279h-8.279V44.574z"/>
		<linearGradient id="SVGID_14_" gradientUnits="userSpaceOnUse" x1="6.8628" y1="6.8076" x2="50.4908" y2="50.6085">
			<stop  offset="0" style="stop-color:#5CBDB3"/>
			<stop  offset="1" style="stop-color:#047472"/>
		</linearGradient>
		<rect x="46.08" y="46.19" fill="url(#SVGID_14_)" width="5.047" height="5.046"/>
	</g>
</g>
<linearGradient id="SVGID_15_" gradientUnits="userSpaceOnUse" x1="8.9204" y1="4.7539" x2="52.5512" y2="48.5576">
	<stop  offset="0" style="stop-color:#5CBDB3"/>
	<stop  offset="1" style="stop-color:#047472"/>
</linearGradient>
<polygon fill="url(#SVGID_15_)" points="46.677,22.237 46.677,18.164 42.603,18.164 38.53,18.164 38.53,22.237 42.603,22.237 
	42.603,26.31 46.677,26.31 46.677,30.384 42.603,30.384 38.53,30.384 38.53,26.31 38.53,22.237 34.456,22.237 34.456,18.164 
	38.53,18.164 38.53,14.09 38.53,10.016 34.456,10.016 34.456,5.943 38.53,5.943 38.53,1.87 34.456,1.87 30.383,1.87 26.309,1.87 
	26.309,5.943 30.383,5.943 30.383,10.016 30.383,14.09 26.309,14.09 26.309,18.164 30.383,18.164 30.383,22.237 30.383,26.31 
	26.309,26.31 26.309,30.384 30.383,30.384 30.383,34.457 30.383,38.531 26.309,38.531 26.309,42.604 30.383,42.604 30.383,46.677 
	30.383,50.751 26.309,50.751 26.309,54.823 30.383,54.823 34.456,54.823 38.53,54.823 38.53,50.751 34.456,50.751 34.456,46.677 
	38.53,46.677 38.53,42.604 38.53,38.531 34.456,38.531 34.456,34.457 38.53,34.457 42.603,34.457 42.603,38.531 46.677,38.531 
	46.677,34.457 50.751,34.457 50.751,38.531 54.825,38.531 54.825,34.457 54.825,30.384 50.751,30.384 50.751,26.31 54.825,26.31 
	54.825,22.237 50.751,22.237 "/>
<linearGradient id="SVGID_16_" gradientUnits="userSpaceOnUse" x1="4.814" y1="8.8442" x2="48.4445" y2="52.6476">
	<stop  offset="0" style="stop-color:#5CBDB3"/>
	<stop  offset="1" style="stop-color:#047472"/>
</linearGradient>
<polygon fill="url(#SVGID_16_)" points="26.309,42.604 22.235,42.604 22.235,38.531 26.309,38.531 26.309,34.457 26.309,30.384 
	22.235,30.384 22.235,26.31 26.309,26.31 26.309,22.237 22.235,22.237 22.235,18.164 22.235,14.09 26.309,14.09 26.309,10.016 
	26.309,5.943 22.235,5.943 22.235,10.016 18.162,10.016 18.162,14.09 18.162,18.164 14.088,18.164 14.088,22.237 18.162,22.237 
	18.162,26.31 14.088,26.31 14.088,30.384 18.162,30.384 18.162,34.457 14.088,34.457 14.088,30.384 10.015,30.384 5.941,30.384 
	5.941,34.457 10.015,34.457 10.015,38.531 14.088,38.531 18.162,38.531 18.162,42.604 18.162,46.677 22.235,46.677 22.235,50.751 
	26.309,50.751 26.309,46.677 "/>
</svg>
