<?xml version="1.0" encoding="utf-8"?>
<!-- Generator: Adobe Illustrator 16.0.0, SVG Export Plug-In . SVG Version: 6.00 Build 0)  -->
<!DOCTYPE svg PUBLIC "-//W3C//DTD SVG 1.1//EN" "http://www.w3.org/Graphics/SVG/1.1/DTD/svg11.dtd">
<svg version="1.1" id="Layer_1" xmlns="http://www.w3.org/2000/svg" xmlns:xlink="http://www.w3.org/1999/xlink" x="0px" y="0px"
	 width="56.693px" height="56.693px" viewBox="0 0 56.693 56.693" enable-background="new 0 0 56.693 56.693" xml:space="preserve">
<path fill="#FFFFFF" d="M28.804-0.181c-15.629,0-28.346,12.715-28.347,28.345c0,15.627,12.717,28.341,28.347,28.341
	s28.347-12.714,28.347-28.341C57.151,12.534,44.434-0.181,28.804-0.181z"/>
<g>
	<linearGradient id="SVGID_1_" gradientUnits="userSpaceOnUse" x1="5.095" y1="10.3508" x2="52.8796" y2="46.2468">
		<stop  offset="0" style="stop-color:#981B1E"/>
		<stop  offset="1" style="stop-color:#C61D23"/>
	</linearGradient>
	<path fill="url(#SVGID_1_)" d="M55.272,28.164c0,14.614-11.85,26.461-26.467,26.461c-14.621,0-26.467-11.847-26.467-26.461
		c0-14.618,11.848-26.466,26.467-26.466C43.423,1.698,55.272,13.546,55.272,28.164z"/>
	<linearGradient id="SVGID_2_" gradientUnits="userSpaceOnUse" x1="46.4402" y1="42.6443" x2="11.9168" y2="14.2942">
		<stop  offset="0" style="stop-color:#981B1E"/>
		<stop  offset="1" style="stop-color:#C61D23"/>
	</linearGradient>
	<path fill="url(#SVGID_2_)" d="M50.864,28.164c0,12.179-9.877,22.055-22.059,22.055c-12.182,0-22.061-9.876-22.061-22.055
		c0-12.183,9.878-22.058,22.061-22.058C40.987,6.106,50.864,15.981,50.864,28.164z"/>
</g>
<path fill="#FFFFFF" d="M38.747,34.223l-6.062-6.062l6.063-6.063c1.07-1.07,1.07-2.808,0-3.879
	c-1.072-1.071-2.809-1.071-3.881-0.001l-6.063,6.063l-6.063-6.063c-1.071-1.071-2.808-1.071-3.88,0.001
	c-1.071,1.07-1.071,2.808,0,3.879l6.063,6.063l-6.062,6.063c-1.072,1.071-1.072,2.809,0,3.88s2.809,1.071,3.88,0l6.062-6.063
	l6.063,6.062c1.071,1.072,2.809,1.072,3.88,0.001S39.818,35.296,38.747,34.223z"/>
</svg>
