<?xml version="1.0" encoding="utf-8"?>
<!-- Generator: Adobe Illustrator 16.0.0, SVG Export Plug-In . SVG Version: 6.00 Build 0)  -->
<!DOCTYPE svg PUBLIC "-//W3C//DTD SVG 1.1//EN" "http://www.w3.org/Graphics/SVG/1.1/DTD/svg11.dtd">
<svg version="1.1" id="Layer_1" xmlns="http://www.w3.org/2000/svg" xmlns:xlink="http://www.w3.org/1999/xlink" x="0px" y="0px"
	 width="56.693px" height="56.693px" viewBox="0 0 56.693 56.693" enable-background="new 0 0 56.693 56.693" xml:space="preserve">
<path fill="#FFFFFF" d="M51.993,38.067l-0.401-0.426c-1.926-2.021-4.835-5.078-4.835-14.259c0-8.217-5.369-15.215-13.233-17.507
	V5.177C33.523,2.323,31.202,0,28.347,0c-2.854,0-5.176,2.323-5.176,5.178v0.698C15.307,8.168,9.938,15.166,9.938,23.382
	c0,9.182-2.91,12.239-4.835,14.26l-0.404,0.427c-0.902,0.972-1.396,2.223-1.39,3.53c0.021,2.848,2.348,5.163,5.189,5.163h11.362
	v1.442c0,4.681,3.807,8.488,8.486,8.488c4.678,0,8.485-3.808,8.485-8.488v-1.442h11.362c2.842,0,5.17-2.316,5.188-5.167
	C53.39,40.292,52.896,39.041,51.993,38.067z"/>
<g>
	
		<radialGradient id="SVGID_1_" cx="36.4373" cy="34.9373" r="24.0744" gradientTransform="matrix(1 0 0 -1 0.04 55.7573)" gradientUnits="userSpaceOnUse">
		<stop  offset="0" style="stop-color:#5CBDB3"/>
		<stop  offset="1" style="stop-color:#047472"/>
	</radialGradient>
	<path fill="url(#SVGID_1_)" d="M51.515,41.586c-0.012,1.697-1.344,3.31-3.32,3.31H8.499c-1.979,0-3.31-1.613-3.321-3.31
		c-0.003-0.779,0.27-1.577,0.89-2.245c2-2.146,5.739-5.378,5.739-15.958c0-8.036,5.634-14.469,13.233-16.048V5.177
		c0-1.827,1.48-3.31,3.308-3.31s3.308,1.482,3.308,3.31v2.157c7.598,1.578,13.233,8.011,13.233,16.048
		c0,10.581,3.738,13.813,5.737,15.958C51.246,40.008,51.519,40.806,51.515,41.586z M21.73,48.205h13.235
		c0,3.654-2.966,6.619-6.617,6.619C24.695,54.824,21.73,51.859,21.73,48.205z"/>
</g>
</svg>
