<?xml version="1.0" encoding="utf-8"?>
<!-- Generator: Adobe Illustrator 16.0.0, SVG Export Plug-In . SVG Version: 6.00 Build 0)  -->
<!DOCTYPE svg PUBLIC "-//W3C//DTD SVG 1.1//EN" "http://www.w3.org/Graphics/SVG/1.1/DTD/svg11.dtd">
<svg version="1.1" id="Layer_1" xmlns="http://www.w3.org/2000/svg" xmlns:xlink="http://www.w3.org/1999/xlink" x="0px" y="0px"
	 width="56.693px" height="56.693px" viewBox="0 0 56.693 56.693" enable-background="new 0 0 56.693 56.693" xml:space="preserve">
<path fill="#FFFFFF" d="M28.346-0.181C12.718-0.181,0.001,12.534,0,28.164c0,15.627,12.716,28.341,28.347,28.341
	c15.63,0,28.347-12.714,28.347-28.341C56.693,12.534,43.976-0.181,28.346-0.181z"/>
<g>
	
		<linearGradient id="SVGID_1_" gradientUnits="userSpaceOnUse" x1="37.3455" y1="-59.3303" x2="97.7244" y2="-59.3303" gradientTransform="matrix(0.8767 0 0 -0.8767 -30.8617 -23.8536)">
		<stop  offset="0" style="stop-color:#5CBDB3"/>
		<stop  offset="1" style="stop-color:#047472"/>
	</linearGradient>
	<path fill="url(#SVGID_1_)" d="M54.813,28.164c0,14.614-11.85,26.461-26.467,26.461c-14.621,0-26.467-11.847-26.467-26.461
		c0-14.618,11.848-26.466,26.467-26.466C42.964,1.698,54.813,13.546,54.813,28.164z"/>
	
		<radialGradient id="SVGID_2_" cx="190.4607" cy="-204.3352" r="32.1152" gradientTransform="matrix(0.6618 0 0 -0.6618 -89.2632 -114.3608)" gradientUnits="userSpaceOnUse">
		<stop  offset="0" style="stop-color:#5CBDB3"/>
		<stop  offset="1" style="stop-color:#047472"/>
	</radialGradient>
	<path fill="url(#SVGID_2_)" d="M50.406,28.164c0,12.179-9.878,22.055-22.06,22.055S6.285,40.343,6.285,28.164
		c0-12.183,9.878-22.058,22.061-22.058C40.528,6.106,50.406,15.981,50.406,28.164z"/>
	<g>
		<path fill="#FFFFFF" d="M11.416,27.485c0-1.785,0.226-3.344,0.677-4.678c0.452-1.332,1.069-2.442,1.853-3.33
			c0.783-0.886,1.675-1.55,2.676-1.992c1.001-0.441,2.052-0.661,3.152-0.661c1.099,0,2.15,0.221,3.151,0.661
			c1.002,0.441,1.891,1.106,2.669,1.992c0.778,0.888,1.39,1.997,1.836,3.33c0.447,1.334,0.668,2.893,0.668,4.678
			c0,1.898-0.223,3.522-0.668,4.87c-0.446,1.351-1.059,2.447-1.836,3.291c-0.778,0.846-1.667,1.47-2.669,1.867
			c-1.001,0.399-2.052,0.6-3.151,0.6c-1.1,0-2.15-0.2-3.152-0.6c-1.001-0.398-1.893-1.021-2.676-1.867
			c-0.784-0.844-1.401-1.941-1.853-3.291C11.642,31.007,11.416,29.383,11.416,27.485z M16.085,27.485
			c0,1.484,0.15,2.708,0.451,3.673c0.301,0.963,0.725,1.682,1.277,2.153c0.549,0.472,1.202,0.708,1.96,0.708
			c0.757,0,1.409-0.236,1.952-0.708c0.544-0.472,0.965-1.193,1.262-2.163c0.294-0.969,0.443-2.193,0.443-3.665
			c0-1.39-0.147-2.573-0.443-3.548c-0.297-0.976-0.717-1.723-1.262-2.241c-0.544-0.519-1.195-0.778-1.952-0.778
			c-0.758,0-1.411,0.26-1.96,0.778c-0.551,0.519-0.976,1.266-1.277,2.241C16.235,24.911,16.085,26.094,16.085,27.485z"/>
		<path fill="#FFFFFF" d="M30.245,21.307c0.115-0.414,0.338-0.881,0.67-1.4c0.331-0.519,0.784-1.012,1.361-1.478
			c0.576-0.467,1.281-0.851,2.115-1.152c0.835-0.302,1.803-0.451,2.902-0.451c1.307,0,2.467,0.241,3.479,0.724
			c1.011,0.481,1.806,1.154,2.388,2.016c0.582,0.862,0.871,1.867,0.871,3.019c0,0.695-0.124,1.331-0.372,1.906
			c-0.25,0.576-0.571,1.056-0.965,1.44c-0.396,0.384-0.81,0.632-1.245,0.747c0.508,0.063,1.02,0.296,1.533,0.7
			c0.514,0.405,0.95,0.944,1.309,1.618c0.356,0.676,0.535,1.47,0.535,2.381c0,1.308-0.329,2.468-0.988,3.479
			c-0.659,1.012-1.559,1.809-2.7,2.389c-1.142,0.581-2.447,0.871-3.921,0.871c-1.525,0-2.819-0.271-3.882-0.809
			c-1.064-0.54-1.911-1.198-2.538-1.977s-1.045-1.53-1.252-2.256l4.264-2.116c0.124,0.446,0.335,0.913,0.631,1.399
			c0.295,0.488,0.676,0.9,1.143,1.237c0.468,0.338,1.007,0.507,1.62,0.507c0.632,0,1.172-0.125,1.618-0.374
			c0.446-0.248,0.79-0.588,1.034-1.02c0.244-0.431,0.367-0.925,0.367-1.486c0-0.581-0.138-1.063-0.413-1.447
			c-0.274-0.383-0.641-0.669-1.097-0.856c-0.455-0.186-0.96-0.28-1.51-0.28h-0.405v-3.33h0.53c0.478,0,0.907-0.095,1.292-0.287
			c0.383-0.192,0.687-0.467,0.91-0.825c0.223-0.357,0.335-0.781,0.335-1.269c0-0.652-0.224-1.21-0.669-1.672
			c-0.447-0.461-1.095-0.693-1.945-0.693c-0.519,0-0.973,0.091-1.361,0.272c-0.39,0.182-0.714,0.41-0.973,0.685
			c-0.26,0.276-0.466,0.556-0.614,0.84c-0.15,0.286-0.247,0.533-0.288,0.74L30.245,21.307z"/>
	</g>
</g>
</svg>
