<?xml version="1.0" encoding="utf-8"?>
<!-- Generator: Adobe Illustrator 16.0.0, SVG Export Plug-In . SVG Version: 6.00 Build 0)  -->
<!DOCTYPE svg PUBLIC "-//W3C//DTD SVG 1.1//EN" "http://www.w3.org/Graphics/SVG/1.1/DTD/svg11.dtd">
<svg version="1.1" id="Layer_1" xmlns="http://www.w3.org/2000/svg" xmlns:xlink="http://www.w3.org/1999/xlink" x="0px" y="0px"
	 width="56.693px" height="56.693px" viewBox="0 0 56.693 56.693" enable-background="new 0 0 56.693 56.693" xml:space="preserve">
<path fill="#FFFFFF" d="M28.346-0.181C12.718-0.181,0.001,12.534,0,28.164c0,15.627,12.716,28.341,28.347,28.341
	c15.63,0,28.347-12.714,28.347-28.341C56.693,12.534,43.976-0.181,28.346-0.181z"/>
<g>
	
		<linearGradient id="SVGID_1_" gradientUnits="userSpaceOnUse" x1="37.3455" y1="-59.3303" x2="97.7244" y2="-59.3303" gradientTransform="matrix(0.8767 0 0 -0.8767 -30.8617 -23.8536)">
		<stop  offset="0" style="stop-color:#5CBDB3"/>
		<stop  offset="1" style="stop-color:#047472"/>
	</linearGradient>
	<path fill="url(#SVGID_1_)" d="M54.813,28.164c0,14.614-11.85,26.461-26.467,26.461c-14.621,0-26.467-11.847-26.467-26.461
		c0-14.618,11.848-26.466,26.467-26.466C42.964,1.698,54.813,13.546,54.813,28.164z"/>
	
		<radialGradient id="SVGID_2_" cx="190.4607" cy="-204.3352" r="32.1152" gradientTransform="matrix(0.6618 0 0 -0.6618 -89.2632 -114.3608)" gradientUnits="userSpaceOnUse">
		<stop  offset="0" style="stop-color:#5CBDB3"/>
		<stop  offset="1" style="stop-color:#047472"/>
	</radialGradient>
	<path fill="url(#SVGID_2_)" d="M50.406,28.164c0,12.179-9.878,22.055-22.06,22.055S6.285,40.343,6.285,28.164
		c0-12.183,9.878-22.058,22.061-22.058C40.528,6.106,50.406,15.981,50.406,28.164z"/>
	<g>
		<path fill="#FFFFFF" d="M10.927,27.485c0-1.785,0.225-3.344,0.677-4.678c0.45-1.332,1.068-2.442,1.852-3.33
			c0.783-0.886,1.676-1.55,2.677-1.992c1-0.441,2.051-0.661,3.151-0.661c1.1,0,2.15,0.221,3.152,0.661
			c1.001,0.441,1.891,1.106,2.668,1.992c0.778,0.888,1.39,1.997,1.836,3.33c0.446,1.334,0.668,2.893,0.668,4.678
			c0,1.898-0.224,3.522-0.668,4.87c-0.447,1.351-1.058,2.447-1.836,3.291c-0.778,0.846-1.667,1.47-2.668,1.867
			c-1.002,0.399-2.053,0.6-3.152,0.6c-1.099,0-2.15-0.2-3.151-0.6c-1.002-0.398-1.895-1.021-2.677-1.867
			c-0.784-0.844-1.401-1.941-1.852-3.291C11.151,31.007,10.927,29.383,10.927,27.485z M15.594,27.485
			c0,1.484,0.15,2.708,0.451,3.673c0.301,0.963,0.726,1.682,1.276,2.153c0.55,0.472,1.203,0.708,1.96,0.708
			c0.757,0,1.409-0.236,1.953-0.708c0.545-0.472,0.965-1.193,1.261-2.163c0.295-0.969,0.443-2.193,0.443-3.665
			c0-1.39-0.147-2.573-0.443-3.548c-0.296-0.976-0.716-1.723-1.261-2.241c-0.545-0.519-1.195-0.778-1.953-0.778
			c-0.757,0-1.41,0.26-1.96,0.778s-0.976,1.266-1.276,2.241C15.746,24.911,15.594,26.094,15.594,27.485z"/>
		<path fill="#FFFFFF" d="M37.412,20.778c-0.685,0-1.289,0.164-1.812,0.489c-0.526,0.327-0.966,0.708-1.324,1.144
			c-0.357,0.436-0.63,0.833-0.817,1.191c-0.187,0.358-0.29,0.567-0.312,0.629l-3.983-1.821c0.021-0.134,0.118-0.406,0.296-0.816
			c0.177-0.409,0.457-0.884,0.84-1.424c0.384-0.54,0.89-1.063,1.518-1.571s1.402-0.931,2.327-1.27
			c0.922-0.336,2.013-0.505,3.268-0.505c1.451,0,2.659,0.208,3.619,0.622c0.959,0.416,1.717,0.958,2.271,1.626
			c0.556,0.668,0.952,1.393,1.191,2.17c0.238,0.778,0.357,1.525,0.357,2.242c0,0.892-0.178,1.756-0.537,2.591
			c-0.357,0.834-0.822,1.623-1.392,2.365c-0.57,0.742-1.183,1.422-1.836,2.037c-0.653,0.618-1.279,1.158-1.876,1.62
			c-0.597,0.461-1.103,0.827-1.519,1.097c-0.414,0.271-0.664,0.436-0.746,0.498h7.734v4.047H29.941v-3.686
			c0.156-0.115,0.508-0.369,1.058-0.764c0.551-0.394,1.212-0.888,1.985-1.479c0.771-0.591,1.576-1.241,2.412-1.953
			c0.835-0.709,1.611-1.444,2.334-2.201c0.721-0.757,1.31-1.499,1.765-2.226c0.458-0.726,0.686-1.395,0.686-2.007
			c0-0.964-0.24-1.647-0.724-2.046C38.974,20.978,38.295,20.778,37.412,20.778z"/>
	</g>
</g>
</svg>
