<?xml version="1.0" encoding="utf-8"?>
<!-- Generator: Adobe Illustrator 16.0.0, SVG Export Plug-In . SVG Version: 6.00 Build 0)  -->
<!DOCTYPE svg PUBLIC "-//W3C//DTD SVG 1.1//EN" "http://www.w3.org/Graphics/SVG/1.1/DTD/svg11.dtd">
<svg version="1.1" id="Layer_1" xmlns="http://www.w3.org/2000/svg" xmlns:xlink="http://www.w3.org/1999/xlink" x="0px" y="0px"
	 width="494.914px" height="101.972px" viewBox="0 0 494.914 101.972" enable-background="new 0 0 494.914 101.972"
	 xml:space="preserve">
<g>
	<path fill="#FFFFFF" d="M141.725,0c-14.089,0-26.225,5.022-36.129,15.066c-3.826,3.826-6.914,7.967-9.275,12.417
		c-2.361-4.45-5.449-8.591-9.275-12.417C77.141,5.022,65.145,0,51.055,0C36.966,0,24.83,5.022,14.926,15.066
		C5.021,24.97,0,36.966,0,51.056v49.521h14.089V51.056c0-10.183,3.627-18.972,10.741-26.086c7.254-7.253,16.042-10.88,26.225-10.88
		s18.832,3.627,25.946,10.88c7.254,7.114,10.881,15.903,10.881,26.086v49.521h2.787h11.302h2.787V51.056
		c0-10.183,3.627-18.972,10.741-26.086c7.254-7.253,16.042-10.88,26.225-10.88s18.832,3.627,25.946,10.88
		c7.254,7.114,10.881,15.903,10.881,26.086v49.521h14.089V51.056c0-14.089-5.022-26.086-14.926-35.99
		C167.811,5.022,155.814,0,141.725,0z"/>
	<path fill="#FFFFFF" d="M264.198,0c-14.089,0-26.086,5.022-35.99,15.066c-9.903,9.904-14.925,21.9-14.925,35.99
		c0,14.089,5.022,26.085,14.925,35.99c9.904,9.904,21.901,14.926,35.99,14.926s26.086-5.022,35.99-14.926
		c10.043-9.904,15.065-21.901,15.065-35.99c0-14.089-5.022-26.086-14.926-35.99C290.423,5.022,278.287,0,264.198,0z M290.284,77.141
		c-7.114,7.115-15.902,10.741-26.086,10.741s-18.972-3.626-26.086-10.741c-7.114-7.253-10.741-15.902-10.741-26.085
		s3.626-18.972,10.741-26.086c7.254-7.253,15.902-10.88,26.086-10.88s18.972,3.627,26.086,10.88
		c7.254,7.254,10.881,15.903,10.881,26.086S297.538,69.888,290.284,77.141z"/>
	<polygon fill="#FFFFFF" points="375.929,86.906 341.474,1.395 326.409,1.395 366.444,100.577 385.416,100.577 425.451,1.395 
		410.385,1.395 	"/>
	<rect x="440.792" y="1.395" fill="#FFFFFF" width="14.09" height="99.182"/>
	<rect x="480.824" y="1.395" fill="#FFFFFF" width="14.09" height="99.182"/>
</g>
</svg>
