<?xml version="1.0" encoding="utf-8"?>
<!-- Generator: Adobe Illustrator 16.0.0, SVG Export Plug-In . SVG Version: 6.00 Build 0)  -->
<!DOCTYPE svg PUBLIC "-//W3C//DTD SVG 1.1//EN" "http://www.w3.org/Graphics/SVG/1.1/DTD/svg11.dtd">
<svg version="1.1" id="Layer_1" xmlns="http://www.w3.org/2000/svg" xmlns:xlink="http://www.w3.org/1999/xlink" x="0px" y="0px"
	 width="113.386px" height="163.987px" viewBox="0 0 113.386 163.987" enable-background="new 0 0 113.386 163.987"
	 xml:space="preserve">
<g>
	<path fill="#2B0F11" d="M25.183,47.458c-0.591-0.479-1.181-0.958-2.008-1.629c0,2.082,0,3.72,0,5.358
		c0.077,0.969,0.154,1.937,0.317,3.967c0.581-3.506,1.662-5.877,0.681-8.401c0.314,0.271,0.629,0.542,0.944,0.813
		C25.138,47.529,25.161,47.494,25.183,47.458z"/>
	<path fill="#2B0F11" d="M24.27,57.16c0.085-0.018,0.17-0.037,0.255-0.054c-0.146-0.83-0.292-1.659-0.438-2.488
		c-0.136,0.029-0.272,0.057-0.409,0.085C23.875,55.522,24.072,56.341,24.27,57.16z"/>
</g>
<path fill="#FFFFFF" d="M113.169,95.252c-0.553-1.295-2.011-1.943-3.342-1.488c-1.642,0.562-2.929,0.878-4.031,0.988
	c-0.24-0.006-0.48,0.009-0.724,0.044c-1.052,0.022-1.968-0.194-2.881-0.665c-3.994-2.063-10.527-6.41-16.255-10.82
	c-7.257-5.586-10.015-8.772-10.608-9.914c1.124-3.555,1.585-7.087,1.877-10.468c1.792-0.796,3.404-2.403,4.68-4.705
	c2.446-4.415,3.572-11.643,0.895-16.443l-0.35-0.803c0.022-1.601,0.176-3.237,0.337-4.96c0.54-5.765,1.152-12.293-3.7-18.146
	l-1.803-2.643c-0.102-0.147-0.217-0.285-0.345-0.409l-1.829-1.784c-0.248-1.254-0.965-1.978-1.451-2.336
	c-0.867-0.639-1.807-0.766-2.429-0.85c-0.049-0.006-0.104-0.014-0.156-0.021c-0.236-0.134-0.494-0.234-0.768-0.292L69.834,9.44
	l-3.889-3.204c-0.074-0.061-0.151-0.118-0.23-0.17c-3.53-2.407-7.469-4.729-12.32-5.438C50.569,0.2,48.278,0,46.188,0
	c-3.996,0-7.479,0.745-10.647,2.277c-0.645,0.312-1.126,0.862-1.36,1.515c-2.689,1.206-4.122,3.562-5.223,5.374
	c-0.544,0.895-1.058,1.74-1.632,2.358c-2.908,3.134-5.604,6.701-5.749,11.558c-0.011,0.055-0.02,0.11-0.027,0.166
	c-3.357,7.379-1.774,14.553-0.102,20.557c-2.059,2.675-2.166,7.569-1.172,11.943c0.598,2.634,1.571,4.832,2.822,6.379
	c0.753,1.258,1.735,1.833,2.551,2.091c0.088,0.042,0.177,0.083,0.267,0.121c0.097,0.518,0.189,1.044,0.284,1.586
	c0.687,3.912,1.462,8.333,4.707,11.991l1.775,3.214l0.386,2.354c0.011,0.066,0.024,0.132,0.04,0.196
	c-0.175,0.268-0.292,0.514-0.38,0.697c-0.006,0.013-0.012,0.025-0.018,0.038c-0.02,0.02-0.044,0.043-0.066,0.064
	c-0.044,0.038-0.086,0.079-0.127,0.12c-0.255,0.242-0.62,0.602-0.931,1.1l-1.806,2.162c-5.164,4.871-11.743,7.721-18.108,10.478
	c-0.833,0.36-1.583,0.543-2.231,0.543c-0.721,0-1.36-0.221-2.013-0.694c-0.808-0.587-1.875-0.678-2.771-0.235
	C4.462,98.05,4.28,98.17,4.117,98.308c-0.478,0.235-0.868,0.604-1.131,1.051c-0.007,0.003-0.015,0.007-0.022,0.01
	c-0.602,0.253-1.511,0.637-2.19,1.511c-0.514,0.662-1.244,2.088-0.357,4.193c1.01,2.396,2.024,4.791,3.039,7.185
	c2.669,6.3,5.43,12.814,8.048,19.251c2.977,7.317,5.884,14.684,8.696,21.808c1.199,3.039,2.382,6.037,3.549,8.976
	c0.321,0.809,1.014,1.412,1.858,1.619c0.212,0.052,0.426,0.077,0.64,0.077c0.638,0,1.263-0.228,1.756-0.653
	c21.911-18.914,47.051-38.212,79.109-60.724c0.73-0.436,1.236-1.207,1.305-2.102c0.809-0.416,1.692-0.873,3.515-1.814
	C113.182,98.049,113.722,96.547,113.169,95.252z"/>
<g>
	<path fill-rule="evenodd" clip-rule="evenodd" fill="#F7BB75" d="M26.08,29c0.525-1.519,1.051-3.039,1.577-4.558
		c5.218-1.736,6.886-7.57,11.521-9.979c0.174-0.081,0.348-0.162,0.523-0.243c4.029,2.749,8.142,4.937,13.345,4.689
		c5.342-0.254,6.343,3.578,6.514,7.948c-3.039,0.382-6.071,0.17-9.113,2.3c3.158-0.495,5.727-1.652,9.281-0.401
		c-3.295,1.682-4.359,4.371-5.43,7.056c-1.044-0.951-1.373-2.787-3.459-2.822c0,1.123,0,2.083,0,3.042
		c-0.141-1.169-0.282-2.338-0.423-3.508c-0.343,0.004-0.686,0.008-1.027,0.011c0,9.261,0,18.521,0,28.606
		c-1.484-1.108-1.948-1.454-2.411-1.8c-0.839-0.354-1.678-0.708-2.517-1.062c-0.282,0.366-0.565,0.732-0.848,1.099
		c-0.247-0.188-0.493-0.376-0.739-0.564c0.164-1.219,0.328-2.437,0.493-3.656c0.308-1.722,0.614-3.444,1.065-5.971
		c-1.776,1.071-2.896,1.747-3.937,2.374c0.374,3.897-1.354,6.502-4.149,8.229c-0.109,2.327-0.207,4.42-0.358,7.628
		c0.881-2.604,1.393-4.116,1.904-5.627c1.397,1.312-0.631,2.599-0.029,3.905c-0.406,0.958-0.816,1.913-1.207,2.876
		c-0.024,0.059,0.098,0.183,0.163,0.269c0.01,0.014,0.077-0.015,0.118-0.023c-0.081,1.813-0.162,3.627-0.256,5.736
		c-0.474-0.654-0.84-1.159-1.201-1.669c-0.253,0.162-0.514,0.476-0.771,0.473c-5.284-0.063-4.588-4.56-5.374-7.667
		c-0.924-3.658-1.226-7.473-1.797-11.22c-0.092-0.586-0.184-1.173-0.274-1.76c-0.258-5.381-0.518-10.762-0.806-16.73
		c-0.948,1.547-1.608,2.626-2.348,3.833c0-3.412,0-6.741,0-10.07c0.267,1.562-0.351,3.454,1.968,4.545
		C26.08,32.416,26.08,30.708,26.08,29z M31.49,48.235c0.652-0.427,1.304-0.854,1.956-1.281c0.681-0.324,1.362-0.649,2.043-0.97
		c1.03,1.26,2.386,1.069,3.751,0.841c0.404-0.019,0.808-0.038,1.685-0.079c-0.984,0.618-1.583,0.994-2.182,1.37
		c-1.739,0.505-4.067-0.437-5.073,1.86c1.055-0.176,2.063-0.344,3.07-0.512c3.727,0.657,7.178,0.678,8.581-3.864
		c-0.291-0.023-0.728-0.057-1.164-0.091c0.132-0.296,0.265-0.591,0.397-0.887c3.13,0.495,0.441-3.385,2.679-3.562
		c0.326,0.278,0.652,0.556,1.321,1.125c0.401-2.378,0.725-4.294,1.065-6.308c-0.846,0.065-1.207,0.093-1.568,0.121
		c-0.412-1.399,0.898-3.231-0.743-4.209c-0.749-0.446-1.983-0.076-3.447-0.076c5.429,2.38,2.273,5.872,2.573,8.735
		c-1.903-0.377-3.226-0.64-4.604-0.913c0.021-0.406,0.041-0.769,0.063-1.182c-0.486,0-0.898,0-1.31-0.001
		c0.101-0.466,0.201-0.932,0.227-1.051c-1.029,0-1.887,0.098-2.712-0.024c-1.119-0.164-2.28-0.87-3.304-0.684
		c-2.797,0.506-4.557,2.193-4.575,5.255c0.235,0.679,0.47,1.358,0.752,2.177c0.865-0.781,1.579-1.426,2.395-2.161
		c0.241,0.546,0.37,0.84,0.499,1.133c-0.698,1.15-2.065,2.02-1.548,3.683c-0.076,0.204-0.151,0.407-0.227,0.611
		c-1.021-0.186-2.043-0.371-3.064-0.557c-0.131,0.194-0.263,0.388-0.394,0.582C29.585,47.623,30.538,47.929,31.49,48.235z
		 M38.421,27.716c-0.258,0.094-0.515,0.188-0.827,0.302c0.091,0.19,0.174,0.363,0.258,0.535c-5.667,3.221-5.667,3.221-5.315,3.848
		c3.485-0.384,6.784-0.747,10.049-1.106c-0.667-0.916-1.395-1.915-2.121-2.914c1.62,0,3.239,0,5.762,0
		c-1.327-0.465-1.754-0.615-2.181-0.764c-0.729-0.614-1.572-1.827-2.165-1.715C40.658,26.132,39.568,27.069,38.421,27.716z
		 M48.541,53.047c-2.304,1.93-2.645,3.615,0.313,5.074C50.216,56.379,49.685,54.761,48.541,53.047z M45.915,35.652
		c-1.37,0.883-2.826,1.75-3.146,3.723C45.093,38.95,46.197,37.803,45.915,35.652z M47.94,47.121c0.731-1.98,1.058-2.861,1.531-4.146
		c-0.807,0.285-1.459,0.374-1.481,0.546C47.88,44.351,47.94,45.203,47.94,47.121z M31.197,49.264
		c-0.879-0.177-2.102-1.099-2.399,0.746C29.736,49.718,30.467,49.491,31.197,49.264z"/>
	<path fill-rule="evenodd" clip-rule="evenodd" fill="#DE4726" d="M36.367,109.158c0.682-0.161,1.365-0.321,2.333-0.55
		c-1.158,5.285-3.388,9.91-3.305,15.09c1.944-4.531,4.871-8.606,5.685-14.106c0.539,0.73,1.044,1.099,1.024,1.434
		c-0.97,15.599-2.785,30.95-13.33,44.207c-1.787-7.595-3.83-14.584-2.89-21.977c0.25-0.945,0.501-1.891,0.752-2.837
		C28.438,122.672,33.951,116.624,36.367,109.158z"/>
	<g>
		<path fill-rule="evenodd" clip-rule="evenodd" fill="#4376BB" d="M100.958,96.519c-8.729-4.506-29.569-19.796-28.344-23.464
			c1.354-4.059,1.756-8.102,2.063-12.245c0.141-2.355,0.283-4.71,0.488-8.126c0.513,1.675,0.696,2.273,0.769,2.507
			c-0.858-9.583-1.746-19.492-2.796-31.21c-2.24,7.284-4.226,12.661-1.725,18.499c1.656,3.865-0.331,7.807-0.093,11.735
			c0.29,4.8,0.321,9.616,0.464,14.426c-0.149,0.445-0.299,0.89-0.448,1.334c-0.172,0.633-0.345,1.267-0.811,2.975
			c1.151-1.598,1.635-2.268,2.118-2.938c0.124,0.073,0.248,0.146,0.372,0.22c-1.261,2.335-2.521,4.67-4.115,7.625
			c0.98-1.06,1.473-1.592,3.19-3.449c-5.472,8.759-12.911,12.444-19.544,17.081c-0.074,0.093-0.148,0.187-0.223,0.28
			c3.488,2.754,7.753,3.726,11.814,5.171c0.392,0.14,0.694,0.53,1.036,0.808c3.396-3.832,20.74-4.677,10.556-19.063
			c3.18,1.944,4.401,5.499,4.33,8.603c-0.151,6.507-2.211,12.695-9.475,15.021c0.354,0.748,0.529,1.117,0.701,1.479
			c0.005,0.005,0.012,0.009,0.017,0.014c0.256,0.256,0.511,0.513,0.766,0.77c0.166,0.176,0.331,0.352,0.496,0.527
			c0.008,0.008,0.017,0.015,0.024,0.022c4.605,1.136,9.382-4.321,9.714-11.078c0.089-1.811,0.282-3.616,1.146-5.386
			c-0.3,5.296-0.599,10.591-0.904,15.993c-2.405,0.73-4.817,1.463-7.545,2.291c1.153,0.841,2.081,1.517,3.009,2.192
			c-0.129,0.155-0.258,0.31-0.387,0.465c-1.678-1.492-3.354-2.985-5.032-4.478c-0.014-0.004-0.028-0.006-0.042-0.009
			c-0.162-0.178-0.325-0.354-0.487-0.53c-0.255-0.258-0.509-0.515-0.764-0.772c-0.003-0.007-0.007-0.015-0.01-0.021
			c-0.351-0.276-0.703-0.554-1.17-0.922C55.612,116.805,44.666,133.364,34,150.106c10.902-8.643,21.684-17.398,32.692-25.858
			c12.016-9.233,23.519-19.229,37.18-26.117c0.432-0.218,0.943-0.54,1.468-0.653C103.769,97.535,102.355,97.24,100.958,96.519z"/>
		<path fill-rule="evenodd" clip-rule="evenodd" fill="#4376BB" d="M105.843,97.446c0.393,0.041,0.78,0.255,1.136,0.78
			c0.869-0.448,1.741-0.898,3.719-1.92C108.869,96.933,107.286,97.328,105.843,97.446z"/>
		<path fill-rule="evenodd" clip-rule="evenodd" fill="#4376BB" d="M105.34,97.478c0.165-0.006,0.333-0.018,0.503-0.031
			C105.675,97.429,105.507,97.442,105.34,97.478z"/>
	</g>
	<path fill-rule="evenodd" clip-rule="evenodd" fill="#4376BB" d="M31.743,89.705c-4.266,5.136-8.342,10.485-15.364,13.275
		c2.247,0.548,4.012,0.979,5.732,1.398c-3.288,17.048-0.134,33.353,5.658,49.377c-7.875-17.571-12.347-36.474-22.021-53.242
		c0.065-0.035,0.099-0.086,0.1-0.151c2.204,1.602,4.537,1.464,6.892,0.443C19.52,97.87,26.285,94.904,31.743,89.705z"/>
	<path fill-rule="evenodd" clip-rule="evenodd" fill="#DE4726" d="M52.547,91.489c-0.074,0.093-0.148,0.187-0.223,0.28
		c-3.149,1.885-6.298,3.769-9.447,5.653c-0.332-0.018-0.664-0.034-0.997-0.052c-0.176-0.1-0.352-0.199-0.528-0.299
		c-0.277-0.322-0.554-0.646-0.831-0.968c-1.455-3.83-2.911-7.659-4.366-11.489c-0.145-0.521-0.29-1.044-0.435-1.565
		c1.125,1.932,3.161,1.438,4.865,1.825c0.419,0.362,0.838,0.724,1.257,1.086c0.079,0.064,0.159,0.129,0.238,0.193
		c0.092,0.092,0.185,0.185,0.276,0.276c0.101,0.055,0.201,0.108,0.303,0.163c0.075,0.019,0.146,0.051,0.209,0.095
		c-1.412,2.069-1.664,4.015,0.606,5.759c2.216-1.885,1.105-3.709,0.017-5.532c0.396,0.118,0.793,0.236,1.189,0.354
		c0.489,1.769,2.35,0.9,3.393,1.797c-1.291,1.29-2.385,2.712-2.417,4.703C47.969,92.926,49.412,89.642,52.547,91.489z"/>
	<path fill-rule="evenodd" clip-rule="evenodd" fill="#DE4726" d="M27.54,54.472c0.571,3.747,0.873,7.562,1.797,11.22
		c0.786,3.107,0.09,7.604,5.374,7.667c0.257,0.003,0.518-0.311,0.771-0.473c0.36,0.51,0.727,1.015,1.201,1.669
		c0.094-2.109,0.175-3.923,0.255-5.735c1.423-3.745,4.912-4.684,8.134-5.987c0.408-0.335,0.816-0.671,1.224-1.006
		c0.063,1.02,0.127,2.041,0.23,3.701c-0.519-0.869-0.673-1.129-0.828-1.389c-0.027-0.023-0.055-0.046-0.082-0.068
		c0.033,0.017,0.066,0.035,0.1,0.052c-0.141,1.058-1.002,2.524,1.257,2.221c-1.206,0.375-2.409,0.748-3.612,1.12
		c0.031-0.684,0.063-1.367,0.095-2.051c-0.28,0.036-0.56,0.072-0.84,0.108c0.189,0.654,0.379,1.309,0.568,1.964
		c-0.519,0.303-1.036,0.605-1.554,0.908c-0.04-0.333-0.079-0.665-0.12-1.002c-2.667,1.205-3.936,3.04-3.253,6.195
		c0.761-0.634,1.295-1.079,1.83-1.523c-0.83,1.921-3.364,3.316-0.436,7.117c-0.396-0.355,1.24,0.022,0.639,1.896
		c-0.257-0.119-0.514-0.238-0.771-0.358c-0.666-0.58-1.331-1.16-1.996-1.74c0.066-0.072,0.132-0.146,0.198-0.219
		c-0.112,0.032-0.225,0.064-0.337,0.096c-0.497,0.19-0.994,0.381-2.227,0.853c0.846-0.732,1.074-0.93,1.459-1.264
		c-0.92-0.194-1.643-0.348-2.6-0.55c0.675-0.433,1.114-0.714,1.492-0.957c-0.661-1.296-1.594-0.563-2.397-0.593
		c-3.894-4.195-3.786-9.753-5.05-14.842c-0.03-0.184-0.06-0.367-0.089-0.551C27.827,58.791,27.683,56.631,27.54,54.472z
		 M34.922,74.696c-0.042,0.173-0.083,0.346-0.125,0.52c0.734,0.172,1.465,0.353,2.205,0.49c0.041,0.008,0.148-0.348,0.225-0.534
		C36.458,75.014,35.69,74.854,34.922,74.696z M42.504,66.472c-0.308-0.321-0.615-0.642-0.923-0.963
		c-0.577,0.351-1.153,0.702-1.828,1.113c0.305,0.396,0.515,0.668,0.152,0.198C40.77,66.704,41.637,66.588,42.504,66.472z"/>
	<path fill-rule="evenodd" clip-rule="evenodd" fill="#4376BB" d="M26.637,130.419c-0.251,0.946-0.502,1.892-0.752,2.837
		c-1.543-12.868-1.429-25.428,6.781-36.481C28.234,107.555,26.838,118.88,26.637,130.419z"/>
	<path fill-rule="evenodd" clip-rule="evenodd" fill="#2B0F11" d="M24.112,29.744c0,3.329,0,6.658,0,10.07
		c0.739-1.207,1.4-2.286,2.348-3.833c0.288,5.968,0.548,11.349,0.806,16.73c-0.146,0.057-0.291,0.114-0.435,0.171
		c-0.309-1.01-0.618-2.02-0.927-3.03c-2.114-8.608-6.095-17.1-1.612-26.114c0.144-0.192,0.286-0.384,0.429-0.577l-0.013,0.014
		c0.424-0.003,0.849-0.007,1.273-0.011c-0.441,1.137-0.883,2.273-1.325,3.41c-0.153,0.475-0.307,0.949-0.46,1.423l-0.021,0.036
		c-0.02,0.455-0.04,0.91-0.059,1.364C24.115,29.514,24.114,29.629,24.112,29.744z"/>
	<path fill-rule="evenodd" clip-rule="evenodd" fill="#4376BB" d="M76.92,19.494c0.073,0.635,0.035,1.309,0.239,1.898
		c1.183,3.422,2.378,6.832,1.785,10.637c-0.276-0.095-0.592-0.203-1.044-0.357c0.419,1.271-0.09,2.203-1.056,3.134
		c-3.724-2.784,3.088-7.671-1.858-10.254c0.592,0.128,1.183,0.256,2.406,0.521c-2.367-2.551-3.544-5.172-4.301-7.952
		c0.513-0.099,1.232-0.238,1.951-0.376C75.669,17.66,76.295,18.577,76.92,19.494z"/>
	<path fill-rule="evenodd" clip-rule="evenodd" fill="#4376BB" d="M58.116,8.307c-0.288,0.342-0.577,0.684-0.693,0.822
		c-2.254-1.556-4.649-3.209-7.167-4.948c1.868,0.517,3.63,1.003,7.136,1.972c-2.434-1.586-3.418-2.227-4.4-2.867
		c4.222,0.617,7.799,2.673,11.244,5.025c0.149,0.574,0.299,1.148,0.49,1.889c-0.916-0.523-1.649-0.942-2.384-1.361
		c-0.029-0.023-0.059-0.047-0.088-0.07c0.03,0.022,0.062,0.044,0.092,0.067c0.102,0.524,0.203,1.047,0.342,1.76
		C61.522,9.581,60.513,8.7,59.504,7.82l0.022,0.01c-0.184-0.115-0.368-0.23-0.552-0.346C58.688,7.759,58.402,8.033,58.116,8.307z"/>
	<path fill-rule="evenodd" clip-rule="evenodd" fill="#2B0F11" d="M36.156,84.615c1.455,3.83,2.911,7.659,4.366,11.489
		C37.331,92.934,36.341,88.928,36.156,84.615z"/>
	<path fill-rule="evenodd" clip-rule="evenodd" fill="#DE4726" d="M25.904,49.854c0.309,1.01,0.618,2.02,0.927,3.03
		c0,1.705,0,3.409,0,5.985C24.253,55.476,23.768,52.784,25.904,49.854z"/>
	<path fill-rule="evenodd" clip-rule="evenodd" fill="#F7BB75" d="M35.26,80.236c1.211,0.83,2.423,1.659,3.635,2.489
		c0.233,0.077,0.466,0.154,0.699,0.232c0.331,0.639,0.662,1.278,0.992,1.917c-1.704-0.387-3.739,0.106-4.865-1.825
		C35.567,82.111,35.414,81.174,35.26,80.236z"/>
	<path fill-rule="evenodd" clip-rule="evenodd" fill="#DE4726" d="M24.172,46.752c0.981,2.524-0.1,4.896-0.681,8.401
		c-0.163-2.03-0.24-2.998-0.317-3.967C23.507,49.708,23.839,48.23,24.172,46.752z"/>
	<path fill-rule="evenodd" clip-rule="evenodd" fill="#4376BB" d="M80.372,42.983c-0.968,1-2.296,1.784-2.104,3.484
		c-0.171,0.266-0.341,0.532-0.512,0.798c-0.535-2.325,0.824-3.995,1.984-5.733C79.951,42.015,80.162,42.499,80.372,42.983z"/>
	<path fill-rule="evenodd" clip-rule="evenodd" fill="#2B0F11" d="M24.172,46.752c-0.333,1.478-0.665,2.956-0.998,4.435
		c0-1.638,0-3.276,0-5.358c0.827,0.671,1.417,1.15,2.008,1.629c-0.022,0.036-0.044,0.071-0.066,0.106
		C24.801,47.294,24.486,47.023,24.172,46.752z"/>
	<path fill-rule="evenodd" clip-rule="evenodd" fill="#4376BB" d="M72.477,14.241c-0.649,0-1.299,0-2.249,0
		c0.68-0.458,1.096-0.738,1.604-1.081c-0.8-0.36-1.442-0.648-2.084-0.937C70.722,12.808,72.672,12.073,72.477,14.241z"/>
	<path fill-rule="evenodd" clip-rule="evenodd" fill="#F7BB75" d="M36.711,4.696c0.334,0.013,0.668,0.025,1.001,0.038
		c-0.001,0,0.108,0.043,0.108,0.043l0.116-0.028c0.046-0.001,0.091,0.004,0.135,0.019C38.58,5.124,39.09,5.48,39.6,5.836
		c-0.967-0.007-1.935-0.015-2.901-0.023C36.703,5.44,36.707,5.068,36.711,4.696z"/>
	<path fill-rule="evenodd" clip-rule="evenodd" fill="#F7BB75" d="M27.97,60.951c0.03,0.184,0.06,0.367,0.089,0.551
		c-1.137,0.453-2.08,0.29-2.713-0.855c0.094-0.077,0.187-0.155,0.28-0.232C26.408,60.593,27.189,60.772,27.97,60.951z"/>
	<path fill-rule="evenodd" clip-rule="evenodd" fill="#DE4726" d="M24.087,54.618c0.146,0.83,0.292,1.659,0.438,2.488
		c-0.085,0.018-0.17,0.036-0.255,0.054c-0.197-0.819-0.395-1.638-0.591-2.457C23.814,54.675,23.951,54.646,24.087,54.618z"/>
	<path fill-rule="evenodd" clip-rule="evenodd" fill="#F7BB75" d="M25.347,60.646c-0.2-0.351-0.401-0.702-0.601-1.053
		c0.117-0.063,0.234-0.127,0.352-0.19c0.176,0.337,0.353,0.674,0.53,1.011C25.534,60.491,25.44,60.569,25.347,60.646z"/>
	<path fill-rule="evenodd" clip-rule="evenodd" fill="#4376BB" d="M69.726,12.165c-0.364-0.078-0.729-0.155-1.094-0.233
		C68.996,12.01,69.361,12.087,69.726,12.165z"/>
	<path fill-rule="evenodd" clip-rule="evenodd" fill="#DE4726" d="M24.721,23.163c-0.143,0.192-0.286,0.385-0.429,0.577
		c-0.027-0.047-0.06-0.09-0.078-0.139c-0.006-0.017,0.029-0.048,0.044-0.072C24.413,23.407,24.567,23.285,24.721,23.163z"/>
	<path fill-rule="evenodd" clip-rule="evenodd" fill="#FFFFFF" d="M42.877,97.423c3.149-1.885,6.298-3.769,9.447-5.653
		c3.488,2.754,7.753,3.726,11.814,5.171c0.392,0.14,0.694,0.53,1.036,0.808c-2.05,2.451-4.098,4.9-6.146,7.349
		c-0.399,0.203-0.831,0.361-1.191,0.617c-2.689,1.909-5.365,3.838-8.045,5.761l0.016,0.017c-0.823-1.978-1.646-3.955-2.469-5.932
		c-1.146-2.512-2.272-5.032-3.484-7.511c-0.065-0.136-0.843,0.076-1.288,0.127c-0.132-0.114-0.263-0.229-0.424-0.367
		C42.454,97.646,42.666,97.534,42.877,97.423z"/>
	<path fill-rule="evenodd" clip-rule="evenodd" fill="#FFFFFF" d="M56.699,108.53c-4.438,6.772-8.877,13.544-13.315,20.316
		c-2.009,0.169-1.407-1.438-1.261-2.239c0.943-5.171,2.014-10.32,3.104-15.464c0.301-1.418,0.729-2.851,2.147-3.438
		c0.868,1.351,1.65,2.568,2.434,3.786l-0.016-0.017c1.03,1.351,1.678-0.022,2.479-0.342
		C53.883,110.492,54.355,107.919,56.699,108.53z"/>
	<path fill-rule="evenodd" clip-rule="evenodd" fill="#DE4726" d="M37.555,100.036c2.152,0.214,4.106,0.409,6.668,0.664
		c-2.844,2.329-3.078,4.979-3.553,7.556c-1.177-0.071-2.348-0.143-3.634-0.221C37.206,105.41,37.37,102.89,37.555,100.036z"/>
	<path fill-rule="evenodd" clip-rule="evenodd" fill="#4376BB" d="M49.809,111.491c-0.783-1.218-1.565-2.436-2.434-3.786
		c-1.418,0.588-1.847,2.021-2.147,3.438c-1.091,5.144-2.161,10.293-3.104,15.464c-0.146,0.801-0.749,2.408,1.261,2.239
		c-1.002,1.879-2.004,3.758-3.007,5.637c4.652-9.103-0.598-20.602,6.963-28.924C48.162,107.536,48.985,109.514,49.809,111.491z"/>
	<path fill-rule="evenodd" clip-rule="evenodd" fill="#4376BB" d="M56.699,108.53c-2.344-0.611-2.816,1.962-4.427,2.603
		c-0.802,0.319-1.449,1.692-2.479,0.342c2.68-1.923,5.355-3.852,8.045-5.761c0.36-0.256,0.792-0.414,1.191-0.617
		C58.253,106.241,57.476,107.386,56.699,108.53z"/>
	<path fill-rule="evenodd" clip-rule="evenodd" fill="#F7BB75" d="M42.877,97.423c-0.211,0.111-0.423,0.223-0.733,0.386
		c0.161,0.139,0.292,0.253,0.424,0.367c-0.123,0.313-0.246,0.628-1.197,3.061c0.367-2.776,0.439-3.32,0.51-3.864
		C42.213,97.389,42.545,97.405,42.877,97.423z"/>
	<path fill-rule="evenodd" clip-rule="evenodd" fill="#DE4726" d="M54.298,35.813c1.07-2.686,2.135-5.375,5.43-7.057
		c-3.555-1.25-6.123-0.093-9.281,0.401c3.042-2.13,6.074-1.918,9.113-2.3c-0.171-4.37-1.172-8.202-6.514-7.948
		c-5.203,0.248-9.316-1.94-13.345-4.689c2.249-1.072,4.362-1.606,5.688,1.374c-0.069-0.204-0.138-0.407-0.207-0.61l0.009,0.008
		c0.953,0.691,1.906,1.382,3.043,2.207c-0.357-0.66-0.627-1.155-1.105-2.037c1.227,0.485,2.134,0.844,3.123,1.235
		c0.036-0.064,0.158-0.276,0.336-0.586c1.69,3.345,4.465,0.836,6.687,1.363c5.327,1.263,7.052,4.275,5.973,9.439
		c-0.392,1.874,1.559,0.965,2.327,1.514c0.955,0.682,2.033,1.19,2.922,2.024c-2.363-0.553-4.565-2.4-7.89-0.128
		c2.965,0.554,4.918,0.919,6.871,1.285c-0.024,0.222-0.05,0.443-0.074,0.665c-1.878,0-3.767-0.122-5.632,0.031
		c-2.383,0.195-2.408,2.746-5.228,4.795c2.871-0.868,4.146-1.252,6.222-1.88c-1.451-0.109-2.021-0.152-3.51-0.264
		c2.818-0.829,4.746-1.396,6.322-1.86c1.366,2.048,2.515,3.768,3.662,5.488l0.01,0.004c-1.77-0.295-3.31-1.808-5.343-0.531
		c-2.908-0.542-5.709,0.281-7.455,0.897c-1.672,1.364-2.625,2.142-3.794,3.096c-0.363-0.87-0.632-1.513-0.898-2.153
		c0.585-1.19,1.17-2.383,1.754-3.576c0.224,0.42,0.448,0.841,1.345,2.521c-0.438-1.784-0.53-2.165-0.624-2.545
		C54.277,35.941,54.299,35.881,54.298,35.813z"/>
	<path fill-rule="evenodd" clip-rule="evenodd" fill="#DE4726" d="M62.131,44.991c0.9,0.196,1.801,0.392,2.748,0.597
		c-1.189,3.531-3.919,1.882-8.358,2.309c4.805,0.298,7.429,0.659,10.034,0.553c1.703-0.069,2.623,1.006,2.813,2.019
		c0.267,1.417,0.242,3.5-0.608,4.407c-3.06,3.26-5.022,6.435-3.223,11.163c1.392,3.654-1.523,6.825-1.62,11.813
		c-0.79-2.155-1.055-2.878-1.319-3.6c1.599-0.181,0.951-1.527,1.24-2.388c-0.64-0.209-1.278-0.418-1.918-0.628
		c0.146-0.555,0.293-1.11,0.463-1.755c0.822,0.399,1.913-0.061,2.044,1.616c1.172-2.397,0.886-4.1-0.652-5.831
		c-3.796-4.269-7.394-8.662-4.009-14.717c-0.788-1.519-1.522-2.935-2.257-4.35C59.049,45.797,60.59,45.394,62.131,44.991z
		 M61.956,51.387c1.525,1.224,2.833,2.272,5.138,4.121c-0.816-2.685-1.265-4.155-1.721-5.653
		C64.251,50.357,63.292,50.788,61.956,51.387z"/>
	<path fill-rule="evenodd" clip-rule="evenodd" fill="#F7BB75" d="M40.29,81.076c0.601-1.874-1.035-2.252-0.639-1.896
		c-2.929-3.801-0.395-5.196,0.435-7.117l-0.008,0.009c0.081-0.094,0.162-0.188,0.244-0.282l-0.009,0.016
		c0.093-0.172,0.186-0.344,0.279-0.516l-0.008,0.012c0.094-0.186,0.188-0.371,0.281-0.556c0.117-0.084,0.233-0.169,0.35-0.253
		c2.63,1.87,5.174,0.52,8.189-0.048c-3.025,0-5.597,0-8.167,0c0.213-0.174,0.427-0.349,0.641-0.523c4.147,0,8.295,0,13.679,0
		c-2.806,1.542-4.977,0.476-6.184,2.364c-0.197-0.009-0.396-0.017-0.593-0.025c-0.994,0-1.988,0-3.311,0
		c0.981,1.935,1.771,3.491,2.528,4.984c0.879,0.07,1.665,0.134,2.451,0.197l-0.015-0.003c1.358,0.72,4.139,1.027,3.395,2.673
		c-0.894,1.975-2.631-0.125-3.953-0.781c-0.308-0.153-0.911-0.193-1.095-0.007c-0.331,0.337-0.448,0.884-0.699,1.443
		c-1.199,1.73-3.195,1.625-5.146,1.661c-0.104-0.084-0.21-0.17-0.315-0.255c-0.441,0.121-0.883,0.242-1.344,0.368
		c-0.215-0.266-0.459-0.568-0.703-0.871C40.479,81.472,40.384,81.273,40.29,81.076z"/>
	<path fill-rule="evenodd" clip-rule="evenodd" fill="#DE4726" d="M49.373,72.284c1.207-1.888,3.378-0.822,6.184-2.364
		c-5.384,0-9.531,0-13.679,0c0.283-0.21,0.565-0.42,0.938-0.697c-0.289-0.19-0.488-0.32-0.687-0.45
		c2.84-0.349,5.679-0.698,8.518-1.047c-0.091-0.36-0.182-0.72-0.273-1.081c-0.311,0.091-0.62,0.182-0.931,0.272
		c0.901-1.667,0.792-3.4-0.417-4.717c-0.645-0.703-1.289,0.298-1.518,0.999c-0.301-0.485-0.58-0.935-0.858-1.386
		c0.395-0.293,0.788-0.586,1.182-0.877c-1.171-2.342-1.975,0.194-2.963,0.193c-0.419-0.583-0.837-1.167-1.255-1.75
		c0.282-0.366,0.565-0.732,0.848-1.098c0.37,1.466,1.03,2.243,2.517,1.062c0.463,0.346,0.927,0.692,2.411,1.8
		c0-10.084,0-19.345,0-28.606c0.342-0.003,0.685-0.007,1.027-0.011c0.141,1.169,0.282,2.338,0.422,3.507
		c0.012,0.471,0.023,0.941,0.034,1.413c-0.145,0.041-0.289,0.081-0.434,0.122c1.463,5.043,0.005,10.329,1.074,15.292
		c0.576,2.672,0.776,4.719-1.076,6.599c-1.727,1.753,0.337,2.63,0.639,3.908l0.012-0.011c-0.329,4.17,3.21,3.633,6.031,4.385
		c-2.948,0.431-5.396,0.789-7.843,1.147c0.017,0.275,0.033,0.55,0.05,0.825c2.347,0,4.694,0,7.657,0
		C54.516,72.389,51.892,72.166,49.373,72.284z"/>
	<path fill-rule="evenodd" clip-rule="evenodd" fill="#DE4726" d="M42.935,82.425c1.952-0.034,3.948,0.071,5.147-1.659
		c0.251-0.56,0.368-1.106,0.699-1.443c0.184-0.187,0.787-0.146,1.095,0.007c1.322,0.656,3.06,2.756,3.953,0.781
		c0.744-1.646-2.036-1.953-3.395-2.673c0.297-0.827,0.594-1.654,1.047-2.917c0.14,1.117,0.228,1.82,0.345,2.757
		c3.024-0.457,3.063-4.557,6.163-4.82c-0.674,1.65-1.338,3.277-2.229,5.456c2.35-1.672,4.264-3.035,6.178-4.397
		c0.161,0.19,0.322,0.381,0.484,0.571c-0.1,0.045-0.198,0.089-0.297,0.134c0.081,0.046,0.161,0.092,0.242,0.138l-0.018-0.032
		c0.033,0.514,0.066,1.027,0.084,1.289c-0.804,0.522-1.516,0.986-2.53,1.646c0.53,2.245-3.308,2.279-3.187,4.804l0.02-0.02
		c-0.683-0.069-1.545,0.57-2.021-1.19c-0.144,1.339-0.216,2.005-0.325,3.028c-0.36-0.589-0.533-0.873-0.807-1.319
		c-0.579,0.979-1.115,1.886-1.902,3.217c0.144-1.443,0.237-2.387,0.426-4.273c-0.637,1.923-0.968,2.925-1.71,5.167
		c0.16-2.24,0.227-3.171,0.381-5.337c-0.574,1.491-0.695,1.805-0.838,2.176c-0.115-0.278-0.22-0.53-0.386-0.934
		c-0.309,0.405-0.543,0.713-0.824,1.082c-0.274-0.135-0.553-0.271-0.78-0.383c-0.579,0.785,0.434,2.19-1.125,2.508
		c-0.121-0.092-0.243-0.185-0.364-0.277c0.025-0.129,0.052-0.258,0.077-0.388c0.192-0.713,0.386-1.426,0.569-2.143
		c0.003-0.011-0.128-0.056-0.196-0.083c-0.092,0.33-0.184,0.656-0.268,0.953C45.329,83.345,44.132,82.885,42.935,82.425z"/>
	<path fill-rule="evenodd" clip-rule="evenodd" fill="#DE4726" d="M25.982,23.166c-0.424,0.003-0.849,0.007-1.273,0.011
		c1.181-2.085,2.362-4.171,4.269-7.538c0.904-0.804,2.244-3.601,5.256-4.504c-0.536,0.063-1.072,0.127-1.799,0.213
		c2.852-2.08,5.435-4.634,9.167-1.239c-1.609-0.632-2.95-1.242-4.43-0.224c0.31,0.337,0.581,0.632,0.935,1.017
		c-3.623-0.163-5.153,3.012-7.648,4.626c-0.012,0.008,0.233,0.413,0.151,0.269c-0.795,1.21-1.507,2.293-2.218,3.377
		c-0.824,1.237-1.647,2.475-2.471,3.712c-0.018,0.037-0.059,0.083-0.049,0.108C25.896,23.057,25.944,23.11,25.982,23.166
		L25.982,23.166z"/>
	<path fill-rule="evenodd" clip-rule="evenodd" fill="#DE4726" d="M39.6,5.836c-0.51-0.356-1.02-0.712-1.529-1.068
		c3.465,0.97,6.93,1.94,10.394,2.91c0.429,0.23,0.858,0.461,1.288,0.691c0.186,0.924,0.371,1.848,0.557,2.771l0.013-0.012
		c-0.897-1.099-1.795-2.198-3.906-4.785c0.841,2.912,1.107,3.837,1.406,4.871c-1.05-0.654-1.945-1.212-3.185-1.984
		c0.412,1.274,0.687,2.121,1.015,3.135c-1.05-1.129-1.921-2.065-2.791-3.002c-0.223-0.327-0.446-0.653-0.669-0.979
		c0.367-0.04,0.734-0.079,2.033-0.218C42.214,7.153,40.907,6.495,39.6,5.836z"/>
	<path fill-rule="evenodd" clip-rule="evenodd" fill="#DE4726" d="M39.178,14.463c-4.635,2.408-6.303,8.243-11.521,9.979
		C30.255,19.682,33.728,15.931,39.178,14.463z"/>
	<path fill-rule="evenodd" clip-rule="evenodd" fill="#2B0F11" d="M25.92,22.886c0.824-1.237,1.647-2.475,2.471-3.712
		c0.283-0.02,0.567-0.04,0.824-0.058C27.918,22.379,24.984,25.04,26.08,29c0,1.708,0,3.417,0,5.29
		c-2.318-1.091-1.701-2.984-1.968-4.545c0.001-0.115,0.002-0.23,0.004-0.346c0.02-0.455,0.04-0.909,0.059-1.364l0.021-0.036
		c0.153-0.474,0.307-0.949,0.46-1.423c0.441-1.136,0.883-2.273,1.325-3.41l0,0c0.068-0.099,0.136-0.197,0.204-0.295
		C26.098,22.876,26.009,22.881,25.92,22.886z"/>
	<path fill-rule="evenodd" clip-rule="evenodd" fill="#DE4726" d="M50.449,77.44c-0.786-0.063-1.572-0.127-2.451-0.197
		c-0.757-1.493-1.547-3.05-2.528-4.984c1.322,0,2.316,0,3.311,0c-0.364,0.065-0.728,0.132-1.245,0.227
		c0.496,0.824,0.92,1.528,1.421,2.358c0.297-0.146,0.672-0.329,1.299-0.637C50.326,75.389,50.388,76.414,50.449,77.44z"/>
	<path fill-rule="evenodd" clip-rule="evenodd" fill="#FFFFFF" d="M50.872,37.444c-0.011-0.471-0.022-0.942-0.034-1.413
		c0.001-0.959,0.001-1.918,0.001-3.042c2.086,0.035,2.415,1.871,3.459,2.822c0.001,0.069-0.021,0.129-0.064,0.182
		c-0.24,0.008-0.48,0.016-0.721,0.024c-0.584,1.192-1.169,2.385-1.754,3.576C51.463,38.876,51.167,38.16,50.872,37.444z"/>
	<path fill-rule="evenodd" clip-rule="evenodd" fill="#F7BB75" d="M49.753,8.369c-0.43-0.23-0.859-0.46-1.288-0.691
		c-0.85-0.757-1.699-1.515-2.752-2.453c3.507,0.683,6.961,0.834,8.18,4.676C52.351,9.732,51.856,7.014,49.753,8.369z"/>
	<path fill-rule="evenodd" clip-rule="evenodd" fill="#DE4726" d="M71.784,68.641c-0.149,0.445-0.299,0.89-0.448,1.334
		c-0.516-0.046-1.032-0.092-1.51-0.135c0-1.664,0-3.347,0-6.279C70.774,66.021,71.279,67.331,71.784,68.641z"/>
	<path fill-rule="evenodd" clip-rule="evenodd" fill="#FFFFFF" d="M62.131,44.991c-1.541,0.403-3.082,0.806-4.623,1.208
		c-0.331-1.729,1.354-2.158,2.07-3.213c-0.027,0.015-0.082,0.039-0.08,0.043c0.018,0.05,0.043,0.097,0.067,0.145
		c-0.374,3.284,1.996,1.825,2.134,1.863C62.699,44.932,62.415,44.961,62.131,44.991z"/>
	<path fill-rule="evenodd" clip-rule="evenodd" fill="#F7BB75" d="M62.423,74.087c-0.162-0.19-0.323-0.381-0.484-0.571
		c-0.007-0.761-0.013-1.521-0.02-2.28c0.64,0.211,1.278,0.42,1.918,0.629c-0.289,0.86,0.358,2.207-1.24,2.388
		c-0.083,0.024-0.164,0.049-0.246,0.074l0.018,0.032C62.386,74.268,62.404,74.178,62.423,74.087z"/>
	<path fill-rule="evenodd" clip-rule="evenodd" fill="#DE4726" d="M66.438,42.623c-1.612-0.374-3.226-0.747-4.716-1.092
		c1.082-0.337,2.412-0.752,3.691-1.152c0.381,0.851,0.696,1.555,1.012,2.259L66.438,42.623z"/>
	<path fill-rule="evenodd" clip-rule="evenodd" fill="#F7BB75" d="M42.192,8.385c0.223,0.326,0.446,0.652,0.669,0.979
		c0.102,0.845,0.203,1.689,0.305,2.534l-0.012-0.008c-1.05-1.578-2.1-3.155-3.202-4.812C40.682,7.504,41.437,7.944,42.192,8.385z"/>
	<path fill-rule="evenodd" clip-rule="evenodd" fill="#DE4726" d="M77.756,47.265c0.171-0.266,0.341-0.532,0.512-0.798
		c0.571,2.491,1.143,4.98,1.714,7.471c-0.113,0.019-0.226,0.038-0.339,0.057C79.014,51.751,78.385,49.508,77.756,47.265z"/>
	<path fill-rule="evenodd" clip-rule="evenodd" fill="#DE4726" d="M58.116,8.307c0.286-0.274,0.572-0.548,0.858-0.822
		c0.184,0.115,0.368,0.23,0.552,0.346l-0.022-0.01c0.266,0.852,0.53,1.703,0.796,2.555l-0.003,0.004
		C59.57,9.688,58.843,8.998,58.116,8.307z"/>
	<path fill-rule="evenodd" clip-rule="evenodd" fill="#DE4726" d="M70.519,72.823c-0.73,0.981-1.46,1.962-2.19,2.942
		c-0.109-0.092-0.218-0.184-0.327-0.275c0.844-0.885,1.687-1.771,2.529-2.656L70.519,72.823z"/>
	<path fill-rule="evenodd" clip-rule="evenodd" fill="#4376BB" d="M59.565,43.174c-0.024-0.048-0.05-0.094-0.067-0.145
		c-0.002-0.004,0.053-0.028,0.08-0.043c0.409-0.039,0.818-0.079,1.501-0.144c-0.175,0.622-0.303,1.075-0.472,1.678
		C60.153,43.934,59.859,43.554,59.565,43.174z"/>
	<path fill-rule="evenodd" clip-rule="evenodd" fill="#DE4726" d="M70.53,72.834c0.071-0.07,0.142-0.141,0.215-0.208
		c-0.074,0.067-0.15,0.133-0.227,0.197L70.53,72.834z"/>
	<path fill-rule="evenodd" clip-rule="evenodd" fill="#DE4726" d="M69.725,64.678C69.725,63.965,69.725,64.04,69.725,64.678
		C69.643,64.048,69.633,63.971,69.725,64.678z"/>
	<path fill-rule="evenodd" clip-rule="evenodd" fill="#DE4726" d="M37.936,4.75L37.82,4.777c0,0-0.11-0.043-0.108-0.043
		C37.788,4.739,37.862,4.744,37.936,4.75z"/>
	<path fill-rule="evenodd" clip-rule="evenodd" fill="#F7BB75" d="M43.166,11.898c-0.001,0.059-0.003,0.118-0.005,0.177
		c0.047-0.029,0.094-0.058,0.141-0.086c-0.049-0.034-0.098-0.067-0.147-0.1C43.154,11.89,43.166,11.898,43.166,11.898z"/>
	<path fill-rule="evenodd" clip-rule="evenodd" fill="#DE4726" d="M50.31,11.141c0.045,0.057,0.091,0.113,0.137,0.17
		c-0.042-0.061-0.083-0.121-0.124-0.182L50.31,11.141z"/>
	<polygon fill-rule="evenodd" clip-rule="evenodd" fill="#DE4726" points="60.3,10.375 60.332,10.409 60.297,10.378 	"/>
	<path fill-rule="evenodd" clip-rule="evenodd" fill="#DE4726" d="M66.426,42.638c0.044,0.02,0.088,0.04,0.128,0.067
		c-0.041-0.023-0.078-0.053-0.115-0.083L66.426,42.638z"/>
	<polygon fill-rule="evenodd" clip-rule="evenodd" fill="#DE4726" points="45.182,14.983 45.16,14.954 45.19,14.992 	"/>
	<path fill-rule="evenodd" clip-rule="evenodd" fill="#DE4726" d="M51.075,63.365c0.046,0.032,0.092,0.065,0.049,0.035
		c0.033,0.041-0.002-0.003-0.037-0.046L51.075,63.365z"/>
	<polygon fill-rule="evenodd" clip-rule="evenodd" fill="#4376BB" points="56.718,82.065 56.764,82.097 56.737,82.046 	"/>
	<polygon fill-rule="evenodd" clip-rule="evenodd" fill="#DE4726" points="69.239,38.281 69.279,38.295 69.249,38.284 	"/>
	<path fill-rule="evenodd" clip-rule="evenodd" fill="#2B0F11" d="M72.547,105.112c4.619,1.18,9.424-4.291,9.757-11.069
		c0.089-1.811,0.282-3.616,1.146-5.386c-0.3,5.296-0.599,10.591-0.904,15.993c-2.405,0.73-4.817,1.463-7.545,2.291
		c1.153,0.841,2.081,1.517,3.009,2.192c-0.129,0.155-0.258,0.31-0.387,0.465c-1.686-1.5-3.371-3-5.057-4.5
		C72.566,105.098,72.547,105.112,72.547,105.112z"/>
	<path fill-rule="evenodd" clip-rule="evenodd" fill="#2B0F11" d="M72.069,104.571c-0.255-0.257-0.51-0.514-0.766-0.77l-0.007,0.008
		c0.255,0.258,0.509,0.515,0.764,0.772L72.069,104.571z"/>
	<path fill-rule="evenodd" clip-rule="evenodd" fill="#2B0F11" d="M72.061,104.582c0.162,0.177,0.325,0.353,0.487,0.53
		c-0.001,0,0.019-0.015,0.018-0.014c-0.165-0.176-0.33-0.352-0.496-0.527L72.061,104.582z"/>
	<path fill-rule="evenodd" clip-rule="evenodd" fill="#2B0F11" d="M32.316,46.678c-0.517-1.662,0.851-2.531,1.549-3.682
		c4.192-3.386,7.978-3.847,11.79-1.338c-0.587,0-1.053,0-1.632,0c1.589,0.85,0.675,1.962,0.532,2.963
		c-0.133,0.296-0.266,0.591-0.397,0.887c-0.762,0-1.523,0-2.324,0c0.153-0.271,0.327-0.575,0.684-1.201
		c-0.609-0.058-1.01-0.096-1.411-0.134c-0.412,2.273-2.068,2.014-3.695,1.815c-0.527-0.341-1.054-0.683-1.572-1.019
		c-0.021,0.063-0.186,0.537-0.35,1.011c-0.681,0.325-1.362,0.649-2.043,0.974C33.069,46.862,32.693,46.771,32.316,46.678z
		 M34.89,43.836c-0.599,0.709-1.198,1.417-1.797,2.126c0.096,0.078,0.192,0.156,0.289,0.234c0.595-0.707,1.189-1.415,1.782-2.122
		c0.644-0.391,1.287-0.782,1.93-1.173c-0.072-0.115-0.144-0.229-0.216-0.344C36.215,42.983,35.552,43.41,34.89,43.836z
		 M38.276,43.645c-0.517,0.797-0.783,1.207-1.236,1.906c0.792-0.109,1.184-0.162,1.699-0.233
		C38.605,44.834,38.511,44.494,38.276,43.645z"/>
	<path fill-rule="evenodd" clip-rule="evenodd" fill="#DE4726" d="M44.556,44.622c0.143-1.001,1.057-2.113-0.532-2.963
		c0.579,0,1.045,0,1.632,0c-3.812-2.509-7.597-2.048-11.79,1.338c-0.129-0.293-0.259-0.586-0.5-1.133
		c-0.815,0.735-1.53,1.38-2.395,2.161c-0.283-0.819-0.518-1.498-0.753-2.176c0.049-0.037,0.095-0.081,0.136-0.129
		c0.123-0.122,0.245-0.244,0.368-0.365l0.018-0.016c0.131-0.159,0.262-0.318,0.392-0.477l0.014-0.014
		c0.077-0.084,0.154-0.167,0.231-0.251l0.014-0.018c0.085-0.107,0.171-0.213,0.257-0.32c2.379-3.446,6.267,0.187,8.935-1.905
		c0.412,0,0.824,0,1.31,0c-0.021,0.413-0.041,0.776-0.063,1.182c1.379,0.273,2.701,0.535,4.604,0.913
		c-0.3-2.863,2.855-6.355-2.573-8.735c1.464,0,2.698-0.37,3.447,0.076c1.642,0.978,0.331,2.81,0.743,4.209l-0.021-0.01
		c-0.068,0.369-0.137,0.738-0.205,1.107c-0.197,1.321-0.396,2.643-0.593,3.965C44.997,41.236,47.686,45.117,44.556,44.622z"/>
	<path fill-rule="evenodd" clip-rule="evenodd" fill="#FFFFFF" d="M37.893,61.792c-0.512,1.512-1.023,3.023-1.904,5.627
		c0.151-3.208,0.249-5.301,0.358-7.628c2.795-1.727,4.523-4.332,4.149-8.229c1.04-0.627,2.16-1.303,3.937-2.374
		c-0.451,2.526-0.758,4.249-1.065,5.971c-1.693,2.018-3.387,4.036-5.081,6.054c-0.093,0.139-0.186,0.278-0.279,0.417
		C37.96,61.678,37.922,61.732,37.893,61.792z"/>
	<path fill-rule="evenodd" clip-rule="evenodd" fill="#FFFFFF" d="M40.464,28.38c0.728,1,1.455,1.999,2.122,2.914
		c-3.265,0.36-6.564,0.723-10.049,1.106c-0.352-0.626-0.352-0.626,5.314-3.848C38.722,28.496,39.593,28.438,40.464,28.38z"/>
	<path fill-rule="evenodd" clip-rule="evenodd" fill="#FFFFFF" d="M43.613,59.378c0.418,0.583,0.836,1.167,1.255,1.75
		c0.067,0.568,0.136,1.136,0.203,1.704c-3.222,1.303-6.71,2.241-8.133,5.986c-0.041,0.008-0.107,0.037-0.118,0.022
		c-0.065-0.085-0.187-0.209-0.163-0.269c0.391-0.963,0.801-1.919,1.206-2.876c1.67-2.294,3.34-4.588,5.011-6.883
		C43.12,59.002,43.366,59.19,43.613,59.378z"/>
	<path fill-rule="evenodd" clip-rule="evenodd" fill="#FFFFFF" d="M30.354,41.72c-0.041,0.048-0.086,0.092-0.136,0.129
		c0.019-3.063,1.779-4.75,4.576-5.256c1.024-0.186,2.186,0.52,3.304,0.684c0.826,0.122,1.684,0.024,2.712,0.024
		c-0.026,0.119-0.126,0.584-0.228,1.051c-2.668,2.093-6.556-1.54-8.935,1.907c-0.086,0.106-0.172,0.213-0.257,0.319l-0.014,0.018
		c-0.077,0.083-0.154,0.167-0.231,0.251l-0.014,0.014c-0.13,0.159-0.261,0.318-0.392,0.477l-0.018,0.016
		C30.6,41.476,30.477,41.598,30.354,41.72z"/>
	<path fill-rule="evenodd" clip-rule="evenodd" fill="#DE4726" d="M41.107,44.173c0.401,0.038,0.801,0.076,1.411,0.134
		c-0.356,0.625-0.53,0.93-0.684,1.201c0.801,0,1.563,0,2.324,0c0.437,0.035,0.873,0.069,1.164,0.092
		c-1.402,4.542-4.854,4.521-8.581,3.865c1.011-0.359,2.021-0.719,3.79-1.349c-1.143,0-1.465,0-1.787,0
		c0.599-0.376,1.197-0.752,2.182-1.37c-0.877,0.041-1.281,0.06-1.686,0.08c0.176-0.144,0.353-0.288,0.529-0.433
		C40.668,45.926,41.909,45.665,41.107,44.173z M42.933,47.888c-0.059-0.161-0.117-0.321-0.176-0.482
		c-0.721,0.333-1.441,0.667-3.069,1.42C41.413,48.327,42.173,48.107,42.933,47.888z"/>
	<path fill-rule="evenodd" clip-rule="evenodd" fill="#DE4726" d="M42.874,58.814c-1.671,2.294-3.341,4.589-5.011,6.883
		c-0.601-1.306,1.427-2.593,0.03-3.905c0.029-0.06,0.067-0.114,0.114-0.163c0.093-0.139,0.186-0.278,0.279-0.417
		c1.694-2.018,3.388-4.036,5.081-6.054C43.202,56.377,43.038,57.596,42.874,58.814z"/>
	<path fill-rule="evenodd" clip-rule="evenodd" fill="#FFFFFF" d="M48.541,53.047c1.144,1.714,1.675,3.333,0.313,5.074
		C45.896,56.662,46.237,54.977,48.541,53.047z"/>
	<path fill-rule="evenodd" clip-rule="evenodd" fill="#FFFFFF" d="M47.234,41.06c0.197-1.322,0.396-2.644,0.593-3.966
		c0.068-0.369,0.137-0.738,0.205-1.106l0.021,0.01c0.361-0.028,0.723-0.056,1.568-0.121c-0.341,2.014-0.664,3.93-1.065,6.308
		C47.887,41.616,47.561,41.338,47.234,41.06z"/>
	<path fill-rule="evenodd" clip-rule="evenodd" fill="#FFFFFF" d="M38.744,48.116c0.322,0,0.644,0,1.787,0
		c-1.769,0.63-2.779,0.99-3.79,1.349c-1.008,0.167-2.016,0.335-3.07,0.511C34.677,47.679,37.005,48.622,38.744,48.116z"/>
	<path fill-rule="evenodd" clip-rule="evenodd" fill="#FFFFFF" d="M45.915,35.652c0.282,2.151-0.822,3.298-3.146,3.723
		C43.089,37.401,44.545,36.535,45.915,35.652z"/>
	<path fill-rule="evenodd" clip-rule="evenodd" fill="#FFFFFF" d="M38.423,27.716c1.145-0.647,2.235-1.584,3.459-1.815
		c0.593-0.112,1.436,1.102,2.166,1.715c-1.547,0.013-3.093,0.026-4.64,0.039c-0.233,0.015-0.467,0.029-0.701,0.042
		C38.613,27.704,38.518,27.71,38.423,27.716z"/>
	<path fill-rule="evenodd" clip-rule="evenodd" fill="#DE4726" d="M39.408,27.655c1.546-0.013,3.093-0.025,4.64-0.039
		c0.426,0.149,0.853,0.299,2.18,0.764c-2.523,0-4.143,0-5.763,0c-0.872,0.058-1.743,0.116-2.613,0.173
		c-0.083-0.172-0.166-0.345-0.257-0.535c0.312-0.114,0.569-0.208,0.828-0.302c0.095-0.006,0.19-0.012,0.286-0.019
		C38.941,27.683,39.175,27.669,39.408,27.655z"/>
	<path fill-rule="evenodd" clip-rule="evenodd" fill="#FFFFFF" d="M39.77,46.394c-0.176,0.145-0.353,0.289-0.529,0.433
		c-1.364,0.227-2.72,0.417-3.75-0.844c0.164-0.476,0.329-0.95,0.35-1.012c0.518,0.335,1.045,0.677,1.573,1.019
		C38.199,46.124,38.984,46.258,39.77,46.394z"/>
	<path fill-rule="evenodd" clip-rule="evenodd" fill="#FFFFFF" d="M31.49,48.235c-0.953-0.307-1.905-0.613-2.858-0.919
		c0.131-0.194,0.263-0.388,0.394-0.582c1.021,0.186,2.043,0.371,3.064,0.556C31.891,47.604,31.69,47.92,31.49,48.235z"/>
	<path fill-rule="evenodd" clip-rule="evenodd" fill="#FFFFFF" d="M47.94,47.121c0-1.918-0.061-2.77,0.05-3.599
		c0.022-0.172,0.675-0.262,1.481-0.546C48.998,44.26,48.672,45.141,47.94,47.121z"/>
	<path fill-rule="evenodd" clip-rule="evenodd" fill="#2B0F11" d="M46.978,59.342c-1.486,1.181-2.146,0.404-2.517-1.062
		C45.3,58.634,46.139,58.988,46.978,59.342z"/>
	<path fill-rule="evenodd" clip-rule="evenodd" fill="#FFFFFF" d="M31.197,49.264c-0.73,0.227-1.461,0.454-2.399,0.746
		C29.095,48.165,30.318,49.087,31.197,49.264z"/>
	<path fill-rule="evenodd" clip-rule="evenodd" fill="#DE4726" d="M31.49,48.235c0.2-0.315,0.4-0.631,0.601-0.945
		c0.075-0.203,0.151-0.407,0.226-0.611c0.376,0.092,0.752,0.184,1.129,0.275C32.794,47.381,32.142,47.808,31.49,48.235z"/>
	<path fill-rule="evenodd" clip-rule="evenodd" fill="#F7BB75" d="M42.869,86.688c0.208,0.076,0.415,0.151,0.622,0.227
		c1.09,1.823,2.2,3.647-0.016,5.532C41.205,90.703,41.457,88.758,42.869,86.688z"/>
	<path fill-rule="evenodd" clip-rule="evenodd" fill="#F7BB75" d="M42.357,86.431c0.101,0.055,0.202,0.109,0.303,0.163
		C42.559,86.539,42.458,86.485,42.357,86.431z"/>
	<path fill-rule="evenodd" clip-rule="evenodd" fill="#F7BB75" d="M41.843,85.961c0.08,0.064,0.159,0.129,0.238,0.193
		C42.002,86.09,41.922,86.025,41.843,85.961z"/>
	<path fill-rule="evenodd" clip-rule="evenodd" fill="#2B0F11" d="M46.649,61.813c0.278,0.451,0.558,0.901,0.858,1.386
		c0.229-0.7,0.873-1.701,1.518-0.999c1.209,1.317,1.318,3.049,0.417,4.716c-0.285,0.195-0.57,0.391-0.667,0.457
		c-0.938-0.122-0.534-1.817-1.801-1.031c-2.261,0.304-1.399-1.162-1.259-2.22l-0.018,0.017c0.155,0.26,0.31,0.52,0.828,1.389
		c-0.104-1.661-0.167-2.681-0.23-3.701C46.413,61.822,46.531,61.817,46.649,61.813z"/>
	<path fill-rule="evenodd" clip-rule="evenodd" fill="#2B0F11" d="M42.129,68.772c0.198,0.13,0.397,0.26,0.687,0.45
		c-0.372,0.277-0.654,0.487-0.938,0.697c-0.214,0.175-0.428,0.35-0.641,0.524l-0.023,0.048c-0.117,0.084-0.233,0.169-0.35,0.254
		c-0.094,0.185-0.187,0.37-0.281,0.555l0.008-0.012c-0.093,0.172-0.186,0.344-0.279,0.516l0.009-0.016
		c-0.082,0.094-0.163,0.188-0.244,0.282l0.008-0.009c-0.534,0.444-1.068,0.89-1.829,1.523c-0.682-3.155,0.586-4.99,3.253-6.195
		c0.041,0.337,0.08,0.669,0.12,1.002C41.797,68.52,41.963,68.646,42.129,68.772z"/>
	<path fill-rule="evenodd" clip-rule="evenodd" fill="#F7BB75" d="M42.129,68.772c-0.166-0.126-0.332-0.252-0.499-0.378
		c0.518-0.303,1.035-0.606,1.554-0.909c0.059-0.005,0.118-0.013,0.177-0.021c1.203-0.373,2.406-0.746,3.612-1.12
		c1.269-0.787,0.864,0.908,1.803,1.03c0.097-0.066,0.382-0.262,0.667-0.457c0.311-0.09,0.62-0.181,0.931-0.272
		c0.092,0.36,0.183,0.72,0.273,1.081C47.808,68.074,44.969,68.423,42.129,68.772z"/>
	<path fill-rule="evenodd" clip-rule="evenodd" fill="#F7BB75" d="M46.649,61.813c-0.118,0.004-0.236,0.009-0.354,0.014
		c-0.407,0.335-0.815,0.67-1.224,1.006c-0.068-0.567-0.137-1.135-0.204-1.704c0.988,0,1.792-2.535,2.963-0.193
		C47.438,61.227,47.044,61.52,46.649,61.813z"/>
	<path fill-rule="evenodd" clip-rule="evenodd" fill="#2B0F11" d="M34.922,74.696c0.768,0.158,1.536,0.317,2.304,0.476
		c-0.076,0.187-0.184,0.542-0.225,0.534c-0.74-0.138-1.471-0.318-2.205-0.49C34.838,75.042,34.88,74.869,34.922,74.696z"/>
	<path fill-rule="evenodd" clip-rule="evenodd" fill="#2B0F11" d="M42.504,66.472c-0.867,0.116-1.734,0.232-2.599,0.348
		c0.362,0.471,0.153,0.198-0.152-0.198c0.675-0.411,1.251-0.762,1.828-1.113C41.889,65.83,42.196,66.151,42.504,66.472z"/>
	<path fill-rule="evenodd" clip-rule="evenodd" fill="#2B0F11" d="M43.36,67.464c-0.059,0.008-0.118,0.016-0.177,0.021
		c-0.189-0.655-0.379-1.31-0.568-1.964c0.28-0.036,0.56-0.072,0.84-0.108C43.424,66.097,43.392,66.78,43.36,67.464z"/>
	<path fill-rule="evenodd" clip-rule="evenodd" fill="#2B0F11" d="M37.382,78.854c0.112-0.031,0.225-0.063,0.337-0.096
		c-0.066,0.073-0.132,0.146-0.198,0.219C37.473,78.939,37.426,78.898,37.382,78.854z"/>
	<path fill-rule="evenodd" clip-rule="evenodd" fill="#2B0F11" d="M45.716,64.123c-0.033-0.017-0.066-0.035-0.1-0.052
		c0.027,0.022,0.055,0.045,0.082,0.068L45.716,64.123z"/>
	<path fill-rule="evenodd" clip-rule="evenodd" fill="#F7BB75" d="M24.657,26.576c-0.153,0.475-0.307,0.949-0.46,1.423
		C24.35,27.524,24.504,27.05,24.657,26.576z"/>
	<path fill-rule="evenodd" clip-rule="evenodd" fill="#F7BB75" d="M24.175,28.035c-0.02,0.455-0.04,0.909-0.059,1.364
		C24.136,28.944,24.156,28.489,24.175,28.035z"/>
	<path fill-rule="evenodd" clip-rule="evenodd" fill="#2B0F11" d="M59.526,7.831c-0.184-0.115-0.368-0.23-0.552-0.346
		C59.158,7.6,59.343,7.715,59.526,7.831z"/>
	<path fill-rule="evenodd" clip-rule="evenodd" fill="#2B0F11" d="M62.346,8.836c-0.03-0.022-0.062-0.044-0.092-0.067
		c0.029,0.023,0.059,0.047,0.088,0.07L62.346,8.836z"/>
	<path fill-rule="evenodd" clip-rule="evenodd" fill="#F7BB75" d="M53.513,36.018c0.24-0.008,0.48-0.016,0.721-0.024
		c0.094,0.38,0.187,0.76,0.624,2.544C53.961,36.859,53.736,36.438,53.513,36.018z"/>
	<path fill-rule="evenodd" clip-rule="evenodd" fill="#F7BB75" d="M61.956,51.387c1.336-0.599,2.295-1.029,3.417-1.532
		c0.456,1.498,0.904,2.969,1.721,5.653C64.789,53.659,63.481,52.61,61.956,51.387z"/>
	<g>
		<path fill-rule="evenodd" clip-rule="evenodd" fill="#2B0F11" d="M50.449,77.44c0-0.013-0.001-0.026-0.002-0.039
			c-0.004,0.012-0.009,0.024-0.013,0.036L50.449,77.44z"/>
		<path fill-rule="evenodd" clip-rule="evenodd" fill="#2B0F11" d="M70.743,72.623c-0.055,0.054-0.112,0.103-0.17,0.151
			c-0.003,0.009-0.005,0.017-0.007,0.024C70.625,72.74,70.684,72.682,70.743,72.623z"/>
		<polygon fill-rule="evenodd" clip-rule="evenodd" fill="#2B0F11" points="62.342,8.84 62.348,8.843 62.346,8.836 		"/>
		<polygon fill-rule="evenodd" clip-rule="evenodd" fill="#2B0F11" points="24.721,23.163 24.712,23.171 24.708,23.177 		"/>
		<path fill-rule="evenodd" clip-rule="evenodd" fill="#2B0F11" d="M80.372,42.983c-0.968,1-2.296,1.784-2.104,3.484
			c0.571,2.491,1.143,4.98,1.714,7.471c-0.113,0.019-0.226,0.038-0.339,0.057c-0.629-2.243-1.258-4.486-1.887-6.729
			c-0.535-2.325,0.824-3.995,1.984-5.733c-0.043-7.461,2.854-15.298-2.82-22.038c0.073,0.635,0.035,1.309,0.239,1.898
			c1.183,3.422,2.378,6.832,1.785,10.637c-0.276-0.095-0.592-0.203-1.044-0.357c0.419,1.271-0.09,2.203-1.056,3.134
			c-3.724-2.784,3.088-7.671-1.858-10.254c0.592,0.128,1.183,0.256,2.406,0.521c-2.367-2.551-3.544-5.172-4.301-7.952
			c0.513-0.099,1.232-0.238,1.951-0.376c-0.855-0.834-1.711-1.668-2.566-2.502c-0.649,0-1.299,0-2.249,0
			c0.68-0.458,1.096-0.738,1.604-1.081c-0.8-0.36-1.442-0.648-2.084-0.937l-0.021-0.059c-0.364-0.078-0.729-0.155-1.094-0.233
			c-1.466-1.207-2.931-2.414-4.396-3.621c0.148,0.574,0.298,1.148,0.489,1.889c-0.914-0.521-1.646-0.94-2.378-1.358
			c0.101,0.521,0.202,1.043,0.34,1.754C61.522,9.581,60.513,8.7,59.504,7.82c0.266,0.852,0.53,1.703,0.796,2.555l0.032,0.034
			l-0.035-0.031c-0.727-0.69-1.454-1.381-2.181-2.071c-0.288,0.342-0.577,0.684-0.693,0.822c-2.254-1.556-4.649-3.209-7.167-4.948
			c1.868,0.517,3.63,1.003,7.136,1.972c-2.434-1.586-3.418-2.227-4.4-2.867c-5.54-0.842-11.032-1.128-16.28,1.41
			c0.334,0.013,0.668,0.025,1.002,0.038c0.075,0.005,0.149,0.01,0.223,0.015c0.046-0.001,0.091,0.004,0.135,0.019
			c2.861,0.801,5.722,1.602,8.583,2.403c-0.074-0.258-0.152-0.529-0.238-0.827c0.29,0.356,0.556,0.681,0.804,0.985
			c0.415,0.116,0.831,0.232,1.246,0.349c-0.851-0.757-1.7-1.514-2.753-2.452c3.507,0.683,6.961,0.834,8.18,4.676
			c-1.542-0.169-2.036-2.888-4.14-1.532c0.184,0.912,0.366,1.824,0.55,2.736c0.006,0.008,0.013,0.016,0.02,0.023
			c0.041,0.061,0.082,0.121,0.124,0.182c-0.046-0.057-0.092-0.113-0.137-0.17c-0.002-0.012-0.005-0.023-0.007-0.035
			c-0.768-0.94-1.543-1.89-3.083-3.776c-0.188-0.053-0.377-0.105-0.565-0.158c0.656,2.271,0.9,3.116,1.168,4.044
			c-1.05-0.654-1.945-1.212-3.185-1.984c0.412,1.274,0.687,2.121,1.015,3.135c-1.05-1.129-1.921-2.065-2.791-3.002
			c0.102,0.845,0.203,1.689,0.305,2.533c0.045,0.03,0.091,0.061,0.136,0.092c-0.047,0.029-0.094,0.058-0.141,0.086
			c0.002-0.059,0.004-0.118,0.005-0.177c0,0,0,0,0-0.001c-0.004-0.002-0.008-0.005-0.012-0.008c-1.05-1.577-2.1-3.155-3.202-4.811
			c0.73,0.426,1.485,0.866,2.24,1.307c0.367-0.04,0.734-0.079,2.033-0.218c-2.012-1.014-3.318-1.672-4.625-2.331
			c-0.967-0.007-1.935-0.015-2.901-0.023c-4.213,0.755-5.022,4.974-7.403,7.539c-2.574,2.773-5.051,5.956-5.037,10.177
			c0.151-0.119,0.302-0.238,0.453-0.357c1.18-2.084,2.361-4.169,4.266-7.532c0.904-0.804,2.244-3.601,5.256-4.504
			c-0.536,0.063-1.072,0.127-1.799,0.213c2.852-2.08,5.435-4.634,9.167-1.239c-1.609-0.632-2.95-1.242-4.43-0.224
			c0.31,0.337,0.581,0.632,0.935,1.017c-3.623-0.163-5.153,3.012-7.648,4.626c-0.008,0.005,0.105,0.2,0.149,0.271
			c0-0.001,0.001-0.001,0.001-0.002c0.025,0.044,0.018,0.034-0.001,0.002c-0.794,1.209-1.506,2.292-2.217,3.375
			c0.283-0.02,0.567-0.04,0.824-0.058C27.918,22.379,24.984,25.04,26.08,29c0.525-1.519,1.051-3.039,1.577-4.558
			c2.599-4.76,6.071-8.511,11.521-9.979c0.174-0.081,0.348-0.162,0.522-0.243c2.249-1.072,4.362-1.606,5.688,1.374
			c-0.069-0.204-0.138-0.407-0.207-0.61l-0.021-0.03l0.03,0.038c0.953,0.69,1.906,1.381,3.043,2.206
			c-0.357-0.66-0.627-1.155-1.105-2.037c1.227,0.485,2.134,0.844,3.123,1.235c0.036-0.064,0.158-0.276,0.336-0.586
			c1.69,3.345,4.465,0.836,6.687,1.363c5.327,1.263,7.052,4.275,5.973,9.439c-0.392,1.874,1.559,0.965,2.327,1.514
			c0.955,0.682,2.033,1.19,2.922,2.024c-2.363-0.553-4.565-2.4-7.89-0.128c2.965,0.554,4.918,0.919,6.871,1.285
			c-0.024,0.222-0.05,0.443-0.074,0.665c-1.878,0-3.767-0.122-5.632,0.031c-2.383,0.195-2.408,2.746-5.228,4.795
			c2.871-0.868,4.146-1.252,6.222-1.88c-1.451-0.109-2.021-0.152-3.51-0.264c2.818-0.829,4.746-1.396,6.322-1.86
			c1.366,2.048,2.515,3.768,3.662,5.488l0.01,0.003l0,0c0,0,0.03,0.011,0.03,0.011l-0.03-0.011c-1.77-0.294-3.31-1.807-5.343-0.53
			c-2.908-0.542-5.709,0.281-7.455,0.897c-1.672,1.364-2.625,2.142-3.794,3.096c-0.363-0.87-0.632-1.513-0.9-2.155
			c-0.294-0.716-0.59-1.432-0.885-2.147c-0.145,0.041-0.289,0.081-0.434,0.122c1.463,5.043,0.005,10.329,1.074,15.292
			c0.576,2.672,0.776,4.719-1.076,6.599c-1.727,1.753,0.337,2.63,0.639,3.908c0.004,0.002,0.007,0.005,0.011,0.007
			c0-0.006,0-0.012,0.001-0.019c0.015,0.018,0.027,0.034,0.037,0.046c-0.01-0.007-0.023-0.017-0.038-0.027
			c-0.317,4.149,3.215,3.615,6.032,4.366c-2.948,0.431-5.396,0.789-7.843,1.147c0.017,0.275,0.033,0.55,0.05,0.825
			c2.347,0,4.694,0,7.657,0c-2.467,2.678-5.091,2.456-7.609,2.574c-0.197-0.009-0.396-0.017-0.593-0.025
			c-0.364,0.065-0.728,0.132-1.245,0.227c0.496,0.824,0.92,1.528,1.421,2.358c0.297-0.146,0.672-0.329,1.299-0.637
			c0.07,1.167,0.131,2.182,0.192,3.194c0.293-0.814,0.588-1.637,1.034-2.881c0.14,1.117,0.228,1.82,0.345,2.757
			c3.024-0.457,3.063-4.557,6.163-4.82c-0.674,1.65-1.338,3.277-2.229,5.456c2.35-1.672,4.264-3.035,6.178-4.397
			c-0.007-0.761-0.013-1.521-0.02-2.28c0.146-0.554,0.293-1.109,0.463-1.754c0.822,0.399,1.913-0.061,2.044,1.616
			c1.172-2.397,0.886-4.1-0.652-5.831c-3.796-4.269-7.394-8.662-4.009-14.717c-0.451-0.868-0.883-1.702-1.309-2.522
			c-0.606-0.044-1.246-0.088-1.936-0.131c0.646-0.062,1.254-0.08,1.828-0.076c-0.282-0.543-0.562-1.083-0.841-1.621
			c-0.331-1.729,1.354-2.158,2.07-3.213c0.409-0.039,0.818-0.079,1.501-0.144c-0.175,0.622-0.303,1.075-0.472,1.678
			c-0.454-0.586-0.748-0.967-1.042-1.347c-0.374,3.284,1.996,1.825,2.134,1.863c1-0.105,0.716-0.076,0.432-0.046
			c0.9,0.196,1.801,0.392,2.748,0.597c-1.017,3.017-3.159,2.252-6.53,2.232c0.036,0.069,0.071,0.138,0.107,0.207
			c3.617,0.261,5.867,0.513,8.099,0.422c1.703-0.069,2.623,1.006,2.813,2.019c0.267,1.417,0.242,3.5-0.608,4.407
			c-3.06,3.26-5.022,6.435-3.223,11.163c1.392,3.654-1.523,6.825-1.62,11.813c-0.79-2.155-1.055-2.878-1.32-3.601
			c-0.082,0.025-0.163,0.05-0.245,0.075c0.033,0.514,0.066,1.027,0.084,1.289c-0.804,0.522-1.516,0.986-2.53,1.646
			c0.528,2.239-3.287,2.279-3.187,4.784c0.007,0,0.014,0,0.02,0l0.026,0.051l-0.046-0.031c0-0.007,0-0.014,0-0.02
			c-0.68-0.057-1.529,0.554-2.001-1.19c-0.144,1.339-0.216,2.005-0.325,3.028c-0.36-0.589-0.533-0.873-0.807-1.319
			c-0.559,0.944-1.079,1.826-1.823,3.082c-0.002,0.001-0.005,0.002-0.007,0.003c-0.021,0.009-0.041,0.018-0.062,0.026
			c0.138-1.385,0.231-2.328,0.415-4.168c-0.583,1.763-0.911,2.755-1.533,4.634c-0.045,0.02-0.096,0.04-0.143,0.06
			c0.136-1.908,0.203-2.857,0.347-4.863c-0.574,1.491-0.695,1.805-0.838,2.176c-0.115-0.278-0.22-0.53-0.386-0.934
			c-0.309,0.405-0.543,0.713-0.824,1.082c-0.274-0.135-0.553-0.271-0.78-0.383c-0.579,0.785,0.434,2.19-1.125,2.508
			c-0.121-0.092-0.243-0.185-0.364-0.277c0.025-0.129,0.052-0.258,0.077-0.388c0.192-0.713,0.386-1.426,0.569-2.143
			c0.003-0.011-0.128-0.056-0.196-0.083c-0.092,0.33-0.184,0.656-0.268,0.953c-1.315-0.505-2.513-0.965-3.708-1.423
			c-0.104-0.084-0.21-0.17-0.315-0.255c-0.441,0.121-0.883,0.242-1.344,0.368c-0.215-0.266-0.459-0.568-0.703-0.871
			c-0.095-0.197-0.19-0.396-0.285-0.593c-0.257-0.119-0.514-0.238-0.772-0.357c-0.665-0.581-1.33-1.161-1.995-1.741
			c-0.049-0.038-0.096-0.079-0.14-0.123c-0.497,0.19-0.994,0.381-2.227,0.853c0.846-0.732,1.074-0.93,1.459-1.264
			c-0.92-0.194-1.643-0.348-2.6-0.55c0.675-0.433,1.114-0.714,1.492-0.957c-0.661-1.296-1.594-0.563-2.397-0.593
			c0.717,1.298,1.433,2.596,2.15,3.893c1.211,0.83,2.423,1.659,3.635,2.489c0.233,0.077,0.466,0.154,0.699,0.231
			c0.331,0.64,0.662,1.279,0.993,1.918c0.419,0.362,0.838,0.724,1.257,1.086c0.08,0.064,0.159,0.129,0.238,0.193
			c0.092,0.092,0.185,0.185,0.276,0.276c0.101,0.055,0.202,0.109,0.303,0.163c0.075,0.019,0.146,0.051,0.209,0.095
			c0.208,0.076,0.415,0.151,0.622,0.227c0.397,0.118,0.794,0.236,1.191,0.354c0.488,1.769,2.349,0.9,3.392,1.797
			c-1.291,1.29-2.385,2.712-2.417,4.703c2.312-0.844,3.755-4.128,6.89-2.28c6.633-4.637,14.072-8.322,19.544-17.081
			c-1.718,1.857-2.21,2.39-3.19,3.449c1.595-2.954,2.854-5.289,4.115-7.625c-0.124-0.074-0.248-0.147-0.372-0.22
			c-0.483,0.67-0.967,1.34-2.118,2.938c0.014-0.053,0.027-0.101,0.041-0.151c-0.012,0.012-0.023,0.023-0.036,0.035
			c-0.03,0.033-0.062,0.065-0.092,0.098c-0.704,0.944-1.407,1.89-2.11,2.834c-0.109-0.092-0.218-0.184-0.327-0.275
			c0.813-0.853,1.625-1.706,2.438-2.559c0.026-0.036,0.054-0.072,0.08-0.108c0.019-0.016,0.036-0.032,0.055-0.049
			c0.43-1.574,0.597-2.188,0.764-2.8c-0.517-0.046-1.033-0.092-1.511-0.134c0-1.664,0-3.347,0-6.279
			c0.948,2.46,1.453,3.77,1.958,5.08c-0.143-4.81-0.174-9.625-0.464-14.426c-0.238-3.928,1.749-7.87,0.093-11.735
			c-2.501-5.838-0.516-11.215,1.725-18.499c1.05,11.718,1.938,21.627,2.796,31.21c-0.072-0.234-0.256-0.833-0.769-2.507
			c-0.205,3.416-0.348,5.771-0.488,8.126C79.967,60.632,83.746,48.803,80.372,42.983z M66.426,42.638
			c-0.003-0.007-0.006-0.014-0.009-0.02c-1.605-0.372-3.211-0.744-4.694-1.087c1.082-0.337,2.412-0.752,3.691-1.152
			c0.378,0.843,0.69,1.542,1.003,2.239c0.007,0.001,0.015,0.003,0.021,0.005c0.037,0.03,0.074,0.06,0.12,0.075
			C66.514,42.678,66.47,42.658,66.426,42.638z M50.398,86.675c0.009-0.111,0.016-0.218,0.023-0.324
			c0.015,0.002,0.03,0.002,0.045,0.003c0.013,0,0.025,0.001,0.038,0.002C50.47,86.46,50.436,86.564,50.398,86.675z M69.725,64.678
			C69.643,64.048,69.633,63.971,69.725,64.678L69.725,64.678z"/>
	</g>
	<path fill-rule="evenodd" clip-rule="evenodd" fill="#FFFFFF" d="M41.237,70.443c2.57,0,5.141,0,8.167,0
		c-3.016,0.568-5.56,1.918-8.189,0.048C41.214,70.491,41.237,70.443,41.237,70.443z"/>
	<path fill-rule="evenodd" clip-rule="evenodd" fill="#DE4726" d="M40.583,71.301c0.094-0.185,0.187-0.37,0.281-0.555
		C40.771,70.93,40.677,71.115,40.583,71.301z"/>
	<path fill-rule="evenodd" clip-rule="evenodd" fill="#DE4726" d="M40.312,71.805c0.093-0.172,0.186-0.344,0.279-0.516
		C40.498,71.461,40.405,71.633,40.312,71.805z"/>
	<path fill-rule="evenodd" clip-rule="evenodd" fill="#DE4726" d="M40.077,72.071c0.081-0.094,0.162-0.188,0.244-0.282
		C40.239,71.883,40.158,71.978,40.077,72.071z"/>
	<path fill-rule="evenodd" clip-rule="evenodd" fill="#2B0F11" d="M62.423,74.087c-0.019,0.091-0.037,0.181-0.055,0.271
		c-0.081-0.046-0.161-0.092-0.242-0.138C62.225,74.176,62.323,74.132,62.423,74.087z"/>
	<path fill-rule="evenodd" clip-rule="evenodd" fill="#2B0F11" d="M25.92,22.886c0.088-0.005,0.177-0.01,0.266-0.015
		c-0.068,0.099-0.136,0.197-0.204,0.295c-0.039-0.057-0.087-0.11-0.111-0.172C25.861,22.969,25.902,22.923,25.92,22.886z"/>
	<path fill-rule="evenodd" clip-rule="evenodd" fill="#4376BB" d="M38.276,43.645c0.234,0.849,0.329,1.189,0.462,1.673
		c-0.515,0.071-0.906,0.124-1.699,0.233C37.494,44.852,37.759,44.442,38.276,43.645z"/>
	<path fill-rule="evenodd" clip-rule="evenodd" fill="#F7BB75" d="M39.77,46.394c-0.785-0.135-1.57-0.27-2.357-0.405
		c1.626,0.199,3.282,0.458,3.694-1.815C41.909,45.665,40.668,45.926,39.77,46.394z"/>
	<path fill-rule="evenodd" clip-rule="evenodd" fill="#DE4726" d="M35.166,44.074c-0.595,0.707-1.189,1.415-1.784,2.122
		c-0.097-0.078-0.193-0.156-0.289-0.234c0.599-0.708,1.198-1.417,1.797-2.126C34.981,43.916,35.074,43.995,35.166,44.074z"/>
	<path fill-rule="evenodd" clip-rule="evenodd" fill="#DE4726" d="M34.89,43.836c0.663-0.426,1.325-0.853,1.988-1.279
		c0.072,0.115,0.145,0.229,0.216,0.344c-0.643,0.391-1.286,0.782-1.929,1.173C35.074,43.995,34.981,43.916,34.89,43.836z"/>
	<path fill-rule="evenodd" clip-rule="evenodd" fill="#F7BB75" d="M48.032,35.988c-0.068,0.369-0.137,0.737-0.205,1.106
		C47.896,36.726,47.964,36.356,48.032,35.988z"/>
	<path fill-rule="evenodd" clip-rule="evenodd" fill="#F7BB75" d="M30.74,41.338c0.131-0.159,0.262-0.318,0.392-0.477
		C31.002,41.021,30.871,41.179,30.74,41.338z"/>
	<path fill-rule="evenodd" clip-rule="evenodd" fill="#F7BB75" d="M30.354,41.72c0.123-0.122,0.245-0.244,0.368-0.365
		C30.6,41.476,30.477,41.598,30.354,41.72z"/>
	<path fill-rule="evenodd" clip-rule="evenodd" fill="#F7BB75" d="M31.146,40.847c0.077-0.084,0.154-0.167,0.231-0.251
		C31.3,40.68,31.223,40.763,31.146,40.847z"/>
	<path fill-rule="evenodd" clip-rule="evenodd" fill="#F7BB75" d="M31.391,40.578c0.085-0.106,0.171-0.213,0.257-0.319
		C31.563,40.365,31.477,40.471,31.391,40.578z"/>
	<path fill-rule="evenodd" clip-rule="evenodd" fill="#F7BB75" d="M38.286,61.212c-0.093,0.139-0.186,0.278-0.279,0.417
		C38.1,61.491,38.193,61.352,38.286,61.212z"/>
	<path fill-rule="evenodd" clip-rule="evenodd" fill="#2B0F11" d="M42.933,47.888c-0.76,0.219-1.52,0.439-3.245,0.938
		c1.628-0.753,2.349-1.086,3.069-1.42C42.815,47.566,42.874,47.727,42.933,47.888z"/>
	<path fill-rule="evenodd" clip-rule="evenodd" fill="#F7BB75" d="M39.408,27.655c-0.233,0.014-0.467,0.028-0.7,0.042
		C38.941,27.684,39.175,27.669,39.408,27.655z"/>
</g>
<path fill-rule="evenodd" clip-rule="evenodd" fill="#2B0F11" d="M106.98,98.224c-0.769,0.5-1.538,1.001-2.459,1.601
	c0.737,0.29,1.267,0.498,1.205,0.475c-27.268,19.143-54.165,39.147-79.48,61.001c-3.908-9.846-8.003-20.357-12.254-30.805
	c-3.605-8.861-7.385-17.65-11.1-26.467c-1.041-2.471,2.174-1.798,2.411-3.31c0.148-0.066,0.296-0.137,0.445-0.206
	c9.674,16.77,14.146,35.672,22.021,53.243c-5.792-16.024-8.946-32.329-5.658-49.377c-1.72-0.42-3.485-0.851-5.732-1.398
	c7.021-2.79,11.098-8.14,15.364-13.275c0.841-1.006,1.682-2.013,2.685-3.214c1.377,4.044-0.445,7.117-1.763,10.283
	c-8.21,11.054-8.324,23.613-6.781,36.479c-0.94,7.395,1.103,14.384,2.89,21.979c10.545-13.257,12.36-28.608,13.33-44.207
	c0.021-0.335-0.485-0.703-1.024-1.434c-0.814,5.5-3.741,9.575-5.685,14.106c-0.083-5.18,2.147-9.805,3.305-15.09
	c-0.969,0.229-1.651,0.389-2.333,0.55c0-1.722,0-3.444,0-5.271c-1.974,1.61-3.963,3.233-5.953,4.856
	c3.528-4.071,4.69-10.391,10.938-11.672c0.176,0.1,0.352,0.199,0.529,0.3c-0.071,0.544-0.143,1.088-0.51,3.864
	c0.951-2.433,1.074-2.747,1.196-3.061c0.446-0.051,1.224-0.263,1.289-0.127c1.212,2.479,2.339,4.999,3.484,7.511
	c-7.561,8.322-2.311,19.821-6.963,28.924c1.002-1.879,2.005-3.758,3.007-5.637c4.438-6.772,8.877-13.544,13.315-20.316
	c0.776-1.145,1.554-2.289,2.33-3.434c2.048-2.448,4.096-4.897,6.144-7.346c3.494-3.942,7.089-7.817,8.694-13.021
	c1.644-2.132,0.68-4.458,0.503-6.727c4.196,1.679,5.771,5.771,5.69,9.284c-0.151,6.507-2.211,12.695-9.475,15.021
	c0.361,0.763,0.536,1.132,0.711,1.501l0.007-0.008c-0.355-0.28-0.712-0.562-1.187-0.936C55.612,116.805,44.666,133.364,34,150.106
	c10.902-8.643,21.684-17.398,32.692-25.858c12.016-9.233,23.519-19.229,37.18-26.117C104.765,97.681,105.998,96.775,106.98,98.224z
	 M37.555,100.036c-0.185,2.854-0.349,5.374-0.52,7.999c1.286,0.078,2.457,0.149,3.634,0.221c0.475-2.577,0.709-5.227,3.553-7.556
	C41.661,100.445,39.707,100.25,37.555,100.036z"/>
</svg>
